<ttFont>
<head>
    <!-- Most of this table will be recalculated by the compiler -->
    <tableVersion value="1.0"/>
    <fontRevision value="1.00100708008"/>
    <checkSumAdjustment value="0x1d22ac0c"/>
    <magicNumber value="0x5f0f3cf5"/>
    <flags value="00000000 00011001"/>
    <unitsPerEm value="1000"/>
    <created value="Thu Jan  1 00:00:00 1970"/>
    <modified value="Tue Jun  1 17:21:17 2010"/>
    <xMin value="-677"/>
    <yMin value="-223"/>
    <xMax value="1186"/>
    <yMax value="828"/>
    <macStyle value="00000000 00000000"/>
    <lowestRecPPEM value="0"/>
    <fontDirectionHint value="0"/>
    <indexToLocFormat value="0"/>
    <glyphDataFormat value="0"/>
  </head>
    <TTGlyph name="A" xMin="313" yMin="0" xMax="749" yMax="728">
      <contour>
        <pt x="615" y="728" on="1"/>
        <pt x="749" y="0" on="1"/>
        <pt x="640" y="0" on="1"/>
        <pt x="695" y="213" on="1"/>
        <pt x="411" y="213" on="1"/>
        <pt x="422" y="0" on="1"/>
        <pt x="313" y="0" on="1"/>
        <pt x="497" y="728" on="1"/>
      </contour>
      <contour>
        <pt x="441" y="301" on="1"/>
        <pt x="671" y="301" on="1"/>
        <pt x="557" y="640" on="1"/>
        <pt x="555" y="640" on="1"/>
      </contour>
    </TTGlyph>
    <TTGlyph name="B" xMin="324" yMin="0" xMax="858" yMax="728">
      <contour>
        <pt x="324" y="728" on="1"/>
        <pt x="624" y="728" on="1"/>
        <pt x="663" y="728" on="0"/>
        <pt x="734" y="701" on="0"/>
        <pt x="788" y="654" on="0"/>
        <pt x="820" y="591" on="0"/>
        <pt x="820" y="555" on="1"/>
        <pt x="820" y="497" on="0"/>
        <pt x="774" y="411" on="0"/>
        <pt x="724" y="390" on="1"/>
        <pt x="793" y="373" on="0"/>
        <pt x="858" y="275" on="0"/>
        <pt x="858" y="209" on="1"/>
        <pt x="858" y="169" on="0"/>
        <pt x="824" y="94" on="0"/>
        <pt x="767" y="35" on="0"/>
        <pt x="692" y="0" on="0"/>
        <pt x="650" y="0" on="1"/>
        <pt x="324" y="0" on="1"/>
      </contour>
      <contour>
        <pt x="422" y="428" on="1"/>
        <pt x="605" y="428" on="1"/>
        <pt x="628" y="428" on="0"/>
        <pt x="670" y="446" on="0"/>
        <pt x="701" y="478" on="0"/>
        <pt x="719" y="518" on="0"/>
        <pt x="719" y="541" on="1"/>
        <pt x="719" y="559" on="0"/>
        <pt x="706" y="595" on="0"/>
        <pt x="677" y="623" on="0"/>
        <pt x="634" y="640" on="0"/>
        <pt x="604" y="640" on="1"/>
        <pt x="422" y="640" on="1"/>
      </contour>
      <contour>
        <pt x="422" y="88" on="1"/>
        <pt x="615" y="88" on="1"/>
        <pt x="641" y="88" on="0"/>
        <pt x="691" y="106" on="0"/>
        <pt x="729" y="138" on="0"/>
        <pt x="752" y="184" on="0"/>
        <pt x="752" y="212" on="1"/>
        <pt x="752" y="239" on="0"/>
        <pt x="734" y="287" on="0"/>
        <pt x="700" y="323" on="0"/>
        <pt x="649" y="344" on="0"/>
        <pt x="616" y="344" on="1"/>
        <pt x="422" y="344" on="1"/>
      </contour>
    </TTGlyph>
    <TTGlyph name="C" xMin="-677" yMin="-21" xMax="-41" yMax="747">
      <contour>
        <pt x="-571" y="374" on="1"/>
        <pt x="-571" y="296" on="0"/>
        <pt x="-533" y="181" on="0"/>
        <pt x="-472" y="106" on="0"/>
        <pt x="-392" y="69" on="0"/>
        <pt x="-350" y="69" on="1"/>
        <pt x="-304" y="69" on="0"/>
        <pt x="-230" y="101" on="0"/>
        <pt x="-176" y="155" on="0"/>
        <pt x="-144" y="224" on="0"/>
        <pt x="-139" y="262" on="1"/>
        <pt x="-41" y="262" on="1"/>
        <pt x="-49" y="202" on="0"/>
        <pt x="-96" y="99" on="0"/>
        <pt x="-174" y="22" on="0"/>
        <pt x="-282" y="-21" on="0"/>
        <pt x="-350" y="-21" on="1"/>
        <pt x="-425" y="-21" on="0"/>
        <pt x="-546" y="33" on="0"/>
        <pt x="-631" y="134" on="0"/>
        <pt x="-677" y="281" on="0"/>
        <pt x="-677" y="374" on="1"/>
        <pt x="-677" y="410" on="0"/>
        <pt x="-654" y="494" on="0"/>
        <pt x="-613" y="577" on="0"/>
        <pt x="-554" y="653" on="0"/>
        <pt x="-481" y="712" on="0"/>
        <pt x="-397" y="747" on="0"/>
        <pt x="-350" y="747" on="1"/>
        <pt x="-284" y="747" on="0"/>
        <pt x="-175" y="710" on="0"/>
        <pt x="-96" y="644" on="0"/>
        <pt x="-47" y="555" on="0"/>
        <pt x="-41" y="503" on="1"/>
        <pt x="-139" y="503" on="1"/>
        <pt x="-159" y="582" on="0"/>
        <pt x="-266" y="657" on="0"/>
        <pt x="-350" y="657" on="1"/>
        <pt x="-400" y="657" on="0"/>
        <pt x="-482" y="612" on="0"/>
        <pt x="-540" y="534" on="0"/>
        <pt x="-571" y="431" on="0"/>
      </contour>
    </TTGlyph>
    <TTGlyph name="D" xMin="74" yMin="0" xMax="670" yMax="728">
      <contour>
        <pt x="74" y="728" on="1"/>
        <pt x="370" y="728" on="1"/>
        <pt x="443" y="728" on="0"/>
        <pt x="555" y="671" on="0"/>
        <pt x="631" y="573" on="0"/>
        <pt x="670" y="441" on="0"/>
        <pt x="670" y="366" on="1"/>
        <pt x="670" y="289" on="0"/>
        <pt x="631" y="155" on="0"/>
        <pt x="556" y="56" on="0"/>
        <pt x="448" y="0" on="0"/>
        <pt x="378" y="0" on="1"/>
        <pt x="74" y="0" on="1"/>
      </contour>
      <contour>
        <pt x="172" y="88" on="1"/>
        <pt x="349" y="88" on="1"/>
        <pt x="456" y="88" on="0"/>
        <pt x="564" y="234" on="0"/>
        <pt x="564" y="364" on="1"/>
        <pt x="564" y="507" on="0"/>
        <pt x="457" y="640" on="0"/>
        <pt x="351" y="640" on="1"/>
        <pt x="172" y="640" on="1"/>
      </contour>
    </TTGlyph>
    <TTGlyph name="E" xMin="674" yMin="0" xMax="1186" yMax="728">
      <contour>
        <pt x="1168" y="728" on="1"/>
        <pt x="1168" y="640" on="1"/>
        <pt x="772" y="640" on="1"/>
        <pt x="1145" y="421" on="1"/>
        <pt x="1145" y="333" on="1"/>
        <pt x="772" y="333" on="1"/>
        <pt x="772" y="88" on="1"/>
        <pt x="1186" y="88" on="1"/>
        <pt x="1186" y="0" on="1"/>
        <pt x="674" y="0" on="1"/>
        <pt x="674" y="728" on="1"/>
      </contour>
    </TTGlyph>
    <TTGlyph name="F" xMin="74" yMin="0" xMax="558" yMax="728">
      <contour>
        <pt x="558" y="728" on="1"/>
        <pt x="558" y="640" on="1"/>
        <pt x="173" y="640" on="1"/>
        <pt x="173" y="421" on="1"/>
        <pt x="508" y="421" on="1"/>
        <pt x="508" y="333" on="1"/>
        <pt x="173" y="333" on="1"/>
        <pt x="173" y="0" on="1"/>
        <pt x="74" y="0" on="1"/>
        <pt x="74" y="728" on="1"/>
      </contour>
    </TTGlyph>
    <TTGlyph name="G" xMin="40" yMin="-20" xMax="684" yMax="748">
      <contour>
        <pt x="684" y="0" on="1"/>
        <pt x="620" y="0" on="1"/>
        <pt x="592" y="97" on="1"/>
        <pt x="580" y="74" on="0"/>
        <pt x="537" y="31" on="0"/>
        <pt x="478" y="-1" on="0"/>
        <pt x="409" y="-20" on="0"/>
        <pt x="372" y="-20" on="1"/>
        <pt x="295" y="-20" on="0"/>
        <pt x="172" y="37" on="0"/>
        <pt x="86" y="139" on="0"/>
        <pt x="40" y="278" on="0"/>
        <pt x="40" y="359" on="1"/>
        <pt x="40" y="458" on="0"/>
        <pt x="94" y="604" on="0"/>
        <pt x="185" y="701" on="0"/>
        <pt x="305" y="748" on="0"/>
        <pt x="372" y="748" on="1"/>
        <pt x="441" y="748" on="0"/>
        <pt x="546" y="709" on="0"/>
        <pt x="623" y="642" on="0"/>
        <pt x="672" y="553" on="0"/>
        <pt x="684" y="504" on="1"/>
        <pt x="592" y="504" on="1"/>
        <pt x="581" y="539" on="0"/>
        <pt x="545" y="596" on="0"/>
        <pt x="492" y="636" on="0"/>
        <pt x="419" y="658" on="0"/>
        <pt x="372" y="658" on="1"/>
        <pt x="313" y="658" on="0"/>
        <pt x="228" y="612" on="0"/>
        <pt x="172" y="531" on="0"/>
        <pt x="146" y="422" on="0"/>
        <pt x="146" y="359" on="1"/>
        <pt x="146" y="286" on="0"/>
        <pt x="178" y="177" on="0"/>
        <pt x="237" y="105" on="0"/>
        <pt x="319" y="70" on="0"/>
        <pt x="370" y="70" on="1"/>
        <pt x="411" y="70" on="0"/>
        <pt x="491" y="109" on="0"/>
        <pt x="554" y="174" on="0"/>
        <pt x="592" y="259" on="0"/>
        <pt x="592" y="304" on="1"/>
        <pt x="372" y="304" on="1"/>
        <pt x="372" y="392" on="1"/>
        <pt x="684" y="392" on="1"/>
      </contour>
    </TTGlyph>
    <TTGlyph name="H" xMin="74" yMin="0" xMax="636" yMax="728">
      <contour>
        <pt x="173" y="728" on="1"/>
        <pt x="173" y="432" on="1"/>
        <pt x="537" y="432" on="1"/>
        <pt x="537" y="728" on="1"/>
        <pt x="636" y="728" on="1"/>
        <pt x="636" y="0" on="1"/>
        <pt x="537" y="0" on="1"/>
        <pt x="537" y="344" on="1"/>
        <pt x="173" y="344" on="1"/>
        <pt x="173" y="0" on="1"/>
        <pt x="74" y="0" on="1"/>
        <pt x="74" y="728" on="1"/>
      </contour>
    </TTGlyph>
    <TTGlyph name="I" xMin="80" yMin="0" xMax="178" yMax="728">
      <contour>
        <pt x="178" y="728" on="1"/>
        <pt x="178" y="0" on="1"/>
        <pt x="80" y="0" on="1"/>
        <pt x="80" y="728" on="1"/>
      </contour>
    </TTGlyph>
    <TTGlyph name="J" xMin="12" yMin="-20" xMax="422" yMax="728">
      <contour>
        <pt x="422" y="728" on="1"/>
        <pt x="422" y="161" on="1"/>
        <pt x="422" y="122" on="0"/>
        <pt x="388" y="55" on="0"/>
        <pt x="330" y="7" on="0"/>
        <pt x="255" y="-20" on="0"/>
        <pt x="215" y="-20" on="1"/>
        <pt x="176" y="-20" on="0"/>
        <pt x="102" y="3" on="0"/>
        <pt x="46" y="47" on="0"/>
        <pt x="12" y="111" on="0"/>
        <pt x="12" y="153" on="1"/>
        <pt x="12" y="241" on="1"/>
        <pt x="110" y="241" on="1"/>
        <pt x="110" y="169" on="1"/>
        <pt x="110" y="144" on="0"/>
        <pt x="128" y="107" on="0"/>
        <pt x="158" y="82" on="0"/>
        <pt x="195" y="70" on="0"/>
        <pt x="215" y="70" on="1"/>
        <pt x="232" y="70" on="0"/>
        <pt x="271" y="81" on="0"/>
        <pt x="303" y="106" on="0"/>
        <pt x="324" y="145" on="0"/>
        <pt x="324" y="172" on="1"/>
        <pt x="324" y="728" on="1"/>
      </contour>
    </TTGlyph>
    <TTGlyph name="K" xMin="74" yMin="0" xMax="656" yMax="728">
      <contour>
        <pt x="172" y="728" on="1"/>
        <pt x="172" y="381" on="1"/>
        <pt x="175" y="381" on="1"/>
        <pt x="517" y="728" on="1"/>
        <pt x="647" y="728" on="1"/>
        <pt x="355" y="439" on="1"/>
        <pt x="656" y="0" on="1"/>
        <pt x="532" y="0" on="1"/>
        <pt x="286" y="368" on="1"/>
        <pt x="172" y="255" on="1"/>
        <pt x="172" y="0" on="1"/>
        <pt x="74" y="0" on="1"/>
        <pt x="74" y="728" on="1"/>
      </contour>
    </TTGlyph>
    <TTGlyph name="L" xMin="74" yMin="0" xMax="526" yMax="728">
      <contour>
        <pt x="172" y="728" on="1"/>
        <pt x="172" y="88" on="1"/>
        <pt x="526" y="88" on="1"/>
        <pt x="526" y="0" on="1"/>
        <pt x="74" y="0" on="1"/>
        <pt x="74" y="728" on="1"/>
      </contour>
    </TTGlyph>
    <TTGlyph name="M" xMin="74" yMin="0" xMax="747" yMax="728">
      <contour>
        <pt x="225" y="728" on="1"/>
        <pt x="410" y="110" on="1"/>
        <pt x="412" y="110" on="1"/>
        <pt x="609" y="728" on="1"/>
        <pt x="747" y="728" on="1"/>
        <pt x="747" y="0" on="1"/>
        <pt x="649" y="0" on="1"/>
        <pt x="649" y="598" on="1"/>
        <pt x="646" y="598" on="1"/>
        <pt x="454" y="0" on="1"/>
        <pt x="368" y="0" on="1"/>
        <pt x="175" y="598" on="1"/>
        <pt x="172" y="598" on="1"/>
        <pt x="172" y="0" on="1"/>
        <pt x="74" y="0" on="1"/>
        <pt x="74" y="728" on="1"/>
      </contour>
    </TTGlyph>
    <TTGlyph name="N" xMin="74" yMin="0" xMax="635" yMax="728">
      <contour>
        <pt x="194" y="728" on="1"/>
        <pt x="533" y="151" on="1"/>
        <pt x="537" y="151" on="1"/>
        <pt x="537" y="728" on="1"/>
        <pt x="635" y="728" on="1"/>
        <pt x="635" y="0" on="1"/>
        <pt x="517" y="0" on="1"/>
        <pt x="176" y="579" on="1"/>
        <pt x="172" y="579" on="1"/>
        <pt x="172" y="0" on="1"/>
        <pt x="74" y="0" on="1"/>
        <pt x="74" y="728" on="1"/>
      </contour>
    </TTGlyph>
    <TTGlyph name="O" xMin="40" yMin="-20" xMax="716" yMax="748">
      <contour>
        <pt x="377" y="-20" on="1"/>
        <pt x="299" y="-20" on="0"/>
        <pt x="174" y="38" on="0"/>
        <pt x="87" y="142" on="0"/>
        <pt x="40" y="284" on="0"/>
        <pt x="40" y="368" on="1"/>
        <pt x="40" y="452" on="0"/>
        <pt x="88" y="592" on="0"/>
        <pt x="176" y="692" on="0"/>
        <pt x="301" y="748" on="0"/>
        <pt x="378" y="748" on="1"/>
        <pt x="455" y="748" on="0"/>
        <pt x="580" y="692" on="0"/>
        <pt x="668" y="592" on="0"/>
        <pt x="716" y="452" on="0"/>
        <pt x="716" y="368" on="1"/>
        <pt x="716" y="284" on="0"/>
        <pt x="669" y="142" on="0"/>
        <pt x="580" y="38" on="0"/>
        <pt x="455" y="-20" on="0"/>
      </contour>
      <contour>
        <pt x="378" y="70" on="1"/>
        <pt x="490" y="70" on="0"/>
        <pt x="610" y="217" on="0"/>
        <pt x="610" y="368" on="1"/>
        <pt x="610" y="518" on="0"/>
        <pt x="487" y="658" on="0"/>
        <pt x="378" y="658" on="1"/>
        <pt x="268" y="658" on="0"/>
        <pt x="146" y="518" on="0"/>
        <pt x="146" y="368" on="1"/>
        <pt x="146" y="217" on="0"/>
        <pt x="266" y="70" on="0"/>
      </contour>
    </TTGlyph>
    <TTGlyph name="P" xMin="74" yMin="0" xMax="586" yMax="728">
      <contour>
        <pt x="74" y="728" on="1"/>
        <pt x="370" y="728" on="1"/>
        <pt x="419" y="728" on="0"/>
        <pt x="498" y="691" on="0"/>
        <pt x="555" y="631" on="0"/>
        <pt x="586" y="556" on="0"/>
        <pt x="586" y="518" on="1"/>
        <pt x="586" y="477" on="0"/>
        <pt x="555" y="400" on="0"/>
        <pt x="498" y="340" on="0"/>
        <pt x="419" y="304" on="0"/>
        <pt x="370" y="304" on="1"/>
        <pt x="172" y="304" on="1"/>
        <pt x="172" y="0" on="1"/>
        <pt x="74" y="0" on="1"/>
      </contour>
      <contour>
        <pt x="172" y="392" on="1"/>
        <pt x="360" y="392" on="1"/>
        <pt x="382" y="392" on="0"/>
        <pt x="425" y="411" on="0"/>
        <pt x="459" y="445" on="0"/>
        <pt x="480" y="491" on="0"/>
        <pt x="480" y="518" on="1"/>
        <pt x="480" y="544" on="0"/>
        <pt x="460" y="588" on="0"/>
        <pt x="427" y="621" on="0"/>
        <pt x="384" y="640" on="0"/>
        <pt x="360" y="640" on="1"/>
        <pt x="172" y="640" on="1"/>
      </contour>
    </TTGlyph>
    <TTGlyph name="Q" xMin="41" yMin="-70" xMax="725" yMax="748">
      <contour>
        <pt x="378" y="-20" on="1"/>
        <pt x="300" y="-20" on="0"/>
        <pt x="175" y="38" on="0"/>
        <pt x="88" y="142" on="0"/>
        <pt x="41" y="284" on="0"/>
        <pt x="41" y="368" on="1"/>
        <pt x="41" y="452" on="0"/>
        <pt x="89" y="592" on="0"/>
        <pt x="177" y="692" on="0"/>
        <pt x="302" y="748" on="0"/>
        <pt x="379" y="748" on="1"/>
        <pt x="456" y="748" on="0"/>
        <pt x="581" y="692" on="0"/>
        <pt x="669" y="592" on="0"/>
        <pt x="717" y="452" on="0"/>
        <pt x="717" y="368" on="1"/>
        <pt x="717" y="283" on="0"/>
        <pt x="670" y="143" on="0"/>
        <pt x="626" y="91" on="1"/>
        <pt x="725" y="-8" on="1"/>
        <pt x="663" y="-70" on="1"/>
        <pt x="561" y="32" on="1"/>
        <pt x="483" y="-20" on="0"/>
      </contour>
      <contour>
        <pt x="482" y="235" on="1"/>
        <pt x="560" y="157" on="1"/>
        <pt x="611" y="230" on="0"/>
        <pt x="611" y="368" on="1"/>
        <pt x="611" y="518" on="0"/>
        <pt x="488" y="658" on="0"/>
        <pt x="379" y="658" on="1"/>
        <pt x="269" y="658" on="0"/>
        <pt x="147" y="518" on="0"/>
        <pt x="147" y="368" on="1"/>
        <pt x="147" y="217" on="0"/>
        <pt x="267" y="70" on="0"/>
        <pt x="379" y="70" on="1"/>
        <pt x="446" y="70" on="0"/>
        <pt x="496" y="97" on="1"/>
        <pt x="420" y="173" on="1"/>
      </contour>
    </TTGlyph>
    <TTGlyph name="R" xMin="74" yMin="0" xMax="627" yMax="728">
      <contour>
        <pt x="74" y="728" on="1"/>
        <pt x="421" y="728" on="1"/>
        <pt x="463" y="728" on="0"/>
        <pt x="532" y="693" on="0"/>
        <pt x="581" y="638" on="0"/>
        <pt x="608" y="568" on="0"/>
        <pt x="608" y="534" on="1"/>
        <pt x="608" y="501" on="0"/>
        <pt x="591" y="439" on="0"/>
        <pt x="561" y="389" on="0"/>
        <pt x="519" y="356" on="0"/>
        <pt x="494" y="351" on="1"/>
        <pt x="524" y="344" on="0"/>
        <pt x="562" y="315" on="0"/>
        <pt x="584" y="275" on="0"/>
        <pt x="592" y="227" on="0"/>
        <pt x="592" y="202" on="1"/>
        <pt x="592" y="95" on="1"/>
        <pt x="592" y="60" on="0"/>
        <pt x="613" y="14" on="0"/>
        <pt x="627" y="0" on="1"/>
        <pt x="517" y="0" on="1"/>
        <pt x="510" y="7" on="0"/>
        <pt x="501" y="30" on="0"/>
        <pt x="496" y="56" on="0"/>
        <pt x="494" y="82" on="0"/>
        <pt x="494" y="91" on="1"/>
        <pt x="494" y="203" on="1"/>
        <pt x="494" y="221" on="0"/>
        <pt x="482" y="258" on="0"/>
        <pt x="456" y="288" on="0"/>
        <pt x="416" y="306" on="0"/>
        <pt x="388" y="306" on="1"/>
        <pt x="172" y="306" on="1"/>
        <pt x="172" y="0" on="1"/>
        <pt x="74" y="0" on="1"/>
      </contour>
      <contour>
        <pt x="172" y="394" on="1"/>
        <pt x="386" y="394" on="1"/>
        <pt x="411" y="394" on="0"/>
        <pt x="453" y="414" on="0"/>
        <pt x="484" y="448" on="0"/>
        <pt x="502" y="495" on="0"/>
        <pt x="502" y="521" on="1"/>
        <pt x="502" y="546" on="0"/>
        <pt x="482" y="590" on="0"/>
        <pt x="449" y="622" on="0"/>
        <pt x="408" y="640" on="0"/>
        <pt x="386" y="640" on="1"/>
        <pt x="172" y="640" on="1"/>
      </contour>
    </TTGlyph>
    <TTGlyph name="S" xMin="50" yMin="-20" xMax="590" yMax="748">
      <contour>
        <pt x="148" y="242" on="1"/>
        <pt x="148" y="204" on="0"/>
        <pt x="173" y="141" on="0"/>
        <pt x="220" y="94" on="0"/>
        <pt x="285" y="68" on="0"/>
        <pt x="324" y="68" on="1"/>
        <pt x="358" y="68" on="0"/>
        <pt x="419" y="78" on="0"/>
        <pt x="465" y="105" on="0"/>
        <pt x="492" y="151" on="0"/>
        <pt x="492" y="187" on="1"/>
        <pt x="492" y="226" on="0"/>
        <pt x="454" y="277" on="0"/>
        <pt x="396" y="309" on="0"/>
        <pt x="327" y="327" on="0"/>
        <pt x="297" y="334" on="1"/>
        <pt x="254" y="344" on="0"/>
        <pt x="172" y="378" on="0"/>
        <pt x="108" y="431" on="0"/>
        <pt x="69" y="506" on="0"/>
        <pt x="69" y="557" on="1"/>
        <pt x="69" y="603" on="0"/>
        <pt x="111" y="674" on="0"/>
        <pt x="180" y="723" on="0"/>
        <pt x="269" y="748" on="0"/>
        <pt x="317" y="748" on="1"/>
        <pt x="392" y="748" on="0"/>
        <pt x="489" y="702" on="0"/>
        <pt x="546" y="633" on="0"/>
        <pt x="569" y="552" on="0"/>
        <pt x="569" y="517" on="1"/>
        <pt x="471" y="517" on="1"/>
        <pt x="471" y="552" on="0"/>
        <pt x="446" y="606" on="0"/>
        <pt x="403" y="642" on="0"/>
        <pt x="347" y="660" on="0"/>
        <pt x="316" y="660" on="1"/>
        <pt x="288" y="660" on="0"/>
        <pt x="235" y="649" on="0"/>
        <pt x="193" y="625" on="0"/>
        <pt x="167" y="586" on="0"/>
        <pt x="167" y="558" on="1"/>
        <pt x="167" y="521" on="0"/>
        <pt x="201" y="473" on="0"/>
        <pt x="252" y="443" on="0"/>
        <pt x="314" y="426" on="0"/>
        <pt x="343" y="419" on="1"/>
        <pt x="391" y="407" on="0"/>
        <pt x="480" y="372" on="0"/>
        <pt x="549" y="318" on="0"/>
        <pt x="590" y="242" on="0"/>
        <pt x="590" y="188" on="1"/>
        <pt x="590" y="133" on="0"/>
        <pt x="550" y="54" on="0"/>
        <pt x="479" y="4" on="0"/>
        <pt x="382" y="-20" on="0"/>
        <pt x="324" y="-20" on="1"/>
        <pt x="271" y="-20" on="0"/>
        <pt x="172" y="18" on="0"/>
        <pt x="96" y="87" on="0"/>
        <pt x="50" y="183" on="0"/>
        <pt x="50" y="242" on="1"/>
      </contour>
    </TTGlyph>
    <TTGlyph name="T" xMin="12" yMin="0" xMax="576" yMax="728">
      <contour>
        <pt x="576" y="728" on="1"/>
        <pt x="576" y="640" on="1"/>
        <pt x="343" y="640" on="1"/>
        <pt x="343" y="0" on="1"/>
        <pt x="245" y="0" on="1"/>
        <pt x="245" y="640" on="1"/>
        <pt x="12" y="640" on="1"/>
        <pt x="12" y="728" on="1"/>
      </contour>
    </TTGlyph>
    <TTGlyph name="U" xMin="70" yMin="-20" xMax="619" yMax="728">
      <contour>
        <pt x="168" y="728" on="1"/>
        <pt x="168" y="227" on="1"/>
        <pt x="168" y="187" on="0"/>
        <pt x="199" y="128" on="0"/>
        <pt x="248" y="89" on="0"/>
        <pt x="309" y="70" on="0"/>
        <pt x="339" y="70" on="1"/>
        <pt x="372" y="70" on="0"/>
        <pt x="437" y="90" on="0"/>
        <pt x="489" y="129" on="0"/>
        <pt x="521" y="188" on="0"/>
        <pt x="521" y="227" on="1"/>
        <pt x="521" y="728" on="1"/>
        <pt x="619" y="728" on="1"/>
        <pt x="619" y="242" on="1"/>
        <pt x="619" y="177" on="0"/>
        <pt x="569" y="79" on="0"/>
        <pt x="489" y="13" on="0"/>
        <pt x="389" y="-20" on="0"/>
        <pt x="339" y="-20" on="1"/>
        <pt x="291" y="-20" on="0"/>
        <pt x="195" y="13" on="0"/>
        <pt x="118" y="79" on="0"/>
        <pt x="70" y="177" on="0"/>
        <pt x="70" y="242" on="1"/>
        <pt x="70" y="728" on="1"/>
      </contour>
    </TTGlyph>
    <TTGlyph name="V" xMin="10" yMin="0" xMax="620" yMax="728">
      <contour>
        <pt x="119" y="728" on="1"/>
        <pt x="314" y="126" on="1"/>
        <pt x="316" y="126" on="1"/>
        <pt x="511" y="728" on="1"/>
        <pt x="620" y="728" on="1"/>
        <pt x="370" y="0" on="1"/>
        <pt x="260" y="0" on="1"/>
        <pt x="10" y="728" on="1"/>
      </contour>
    </TTGlyph>
    <TTGlyph name="W" xMin="10" yMin="0" xMax="894" yMax="728">
      <contour>
        <pt x="120" y="728" on="1"/>
        <pt x="254" y="140" on="1"/>
        <pt x="401" y="728" on="1"/>
        <pt x="503" y="728" on="1"/>
        <pt x="650" y="140" on="1"/>
        <pt x="784" y="728" on="1"/>
        <pt x="894" y="728" on="1"/>
        <pt x="712" y="0" on="1"/>
        <pt x="606" y="0" on="1"/>
        <pt x="452" y="597" on="1"/>
        <pt x="298" y="0" on="1"/>
        <pt x="192" y="0" on="1"/>
        <pt x="10" y="728" on="1"/>
      </contour>
    </TTGlyph>
    <TTGlyph name="X" xMin="10" yMin="0" xMax="604" yMax="728">
      <contour>
        <pt x="140" y="728" on="1"/>
        <pt x="307" y="449" on="1"/>
        <pt x="474" y="728" on="1"/>
        <pt x="584" y="728" on="1"/>
        <pt x="359" y="372" on="1"/>
        <pt x="604" y="0" on="1"/>
        <pt x="483" y="0" on="1"/>
        <pt x="307" y="294" on="1"/>
        <pt x="131" y="0" on="1"/>
        <pt x="10" y="0" on="1"/>
        <pt x="255" y="372" on="1"/>
        <pt x="30" y="728" on="1"/>
      </contour>
    </TTGlyph>
    <TTGlyph name="Y" xMin="0" yMin="0" xMax="624" yMax="728">
      <contour>
        <pt x="121" y="728" on="1"/>
        <pt x="311" y="374" on="1"/>
        <pt x="313" y="374" on="1"/>
        <pt x="503" y="728" on="1"/>
        <pt x="624" y="728" on="1"/>
        <pt x="361" y="293" on="1"/>
        <pt x="361" y="0" on="1"/>
        <pt x="263" y="0" on="1"/>
        <pt x="263" y="293" on="1"/>
        <pt x="0" y="728" on="1"/>
      </contour>
    </TTGlyph>
    <TTGlyph name="Z" xMin="24" yMin="0" xMax="577" yMax="728">
      <contour>
        <pt x="577" y="728" on="1"/>
        <pt x="577" y="627" on="1"/>
        <pt x="149" y="90" on="1"/>
        <pt x="149" y="88" on="1"/>
        <pt x="577" y="88" on="1"/>
        <pt x="577" y="0" on="1"/>
        <pt x="24" y="0" on="1"/>
        <pt x="24" y="90" on="1"/>
        <pt x="461" y="638" on="1"/>
        <pt x="461" y="640" on="1"/>
        <pt x="54" y="640" on="1"/>
        <pt x="54" y="728" on="1"/>
      </contour>
    </TTGlyph>
    <TTGlyph name="a" xMin="36" yMin="-10" xMax="530" yMax="533">
      <contour>
        <pt x="56" y="375" on="1"/>
        <pt x="56" y="415" on="0"/>
        <pt x="92" y="475" on="0"/>
        <pt x="151" y="514" on="0"/>
        <pt x="224" y="533" on="0"/>
        <pt x="260" y="533" on="1"/>
        <pt x="299" y="533" on="0"/>
        <pt x="373" y="515" on="0"/>
        <pt x="431" y="477" on="0"/>
        <pt x="467" y="417" on="0"/>
        <pt x="467" y="375" on="1"/>
        <pt x="467" y="105" on="1"/>
        <pt x="467" y="91" on="0"/>
        <pt x="486" y="66" on="0"/>
        <pt x="500" y="66" on="1"/>
        <pt x="508" y="66" on="0"/>
        <pt x="521" y="72" on="0"/>
        <pt x="530" y="77" on="1"/>
        <pt x="530" y="1" on="1"/>
        <pt x="516" y="-3" on="0"/>
        <pt x="489" y="-10" on="0"/>
        <pt x="467" y="-10" on="1"/>
        <pt x="431" y="-10" on="0"/>
        <pt x="384" y="34" on="0"/>
        <pt x="384" y="80" on="1"/>
        <pt x="346" y="33" on="0"/>
        <pt x="251" y="-10" on="0"/>
        <pt x="191" y="-10" on="1"/>
        <pt x="122" y="-10" on="0"/>
        <pt x="36" y="72" on="0"/>
        <pt x="36" y="141" on="1"/>
        <pt x="36" y="193" on="0"/>
        <pt x="87" y="258" on="0"/>
        <pt x="162" y="297" on="0"/>
        <pt x="251" y="319" on="0"/>
        <pt x="326" y="337" on="0"/>
        <pt x="377" y="357" on="0"/>
        <pt x="377" y="375" on="1"/>
        <pt x="377" y="417" on="0"/>
        <pt x="316" y="455" on="0"/>
        <pt x="259" y="455" on="1"/>
        <pt x="236" y="455" on="0"/>
        <pt x="195" y="447" on="0"/>
        <pt x="164" y="429" on="0"/>
        <pt x="146" y="398" on="0"/>
        <pt x="146" y="375" on="1"/>
      </contour>
      <contour>
        <pt x="377" y="287" on="1"/>
        <pt x="347" y="273" on="0"/>
        <pt x="262" y="255" on="0"/>
        <pt x="183" y="227" on="0"/>
        <pt x="128" y="183" on="0"/>
        <pt x="128" y="144" on="1"/>
        <pt x="128" y="123" on="0"/>
        <pt x="145" y="93" on="0"/>
        <pt x="173" y="75" on="0"/>
        <pt x="208" y="66" on="0"/>
        <pt x="226" y="66" on="1"/>
        <pt x="277" y="66" on="0"/>
        <pt x="357" y="109" on="0"/>
        <pt x="377" y="162" on="1"/>
      </contour>
    </TTGlyph>
    <TTGlyph name="afii10053" xMin="40" yMin="-20" xMax="716" yMax="748">
      <contour>
        <pt x="377" y="-20" on="1"/>
        <pt x="299" y="-20" on="0"/>
        <pt x="174" y="38" on="0"/>
        <pt x="87" y="142" on="0"/>
        <pt x="40" y="284" on="0"/>
        <pt x="40" y="368" on="1"/>
        <pt x="40" y="452" on="0"/>
        <pt x="88" y="592" on="0"/>
        <pt x="176" y="692" on="0"/>
        <pt x="301" y="748" on="0"/>
        <pt x="378" y="748" on="1"/>
        <pt x="455" y="748" on="0"/>
        <pt x="580" y="692" on="0"/>
        <pt x="668" y="592" on="0"/>
        <pt x="716" y="452" on="0"/>
        <pt x="716" y="368" on="1"/>
        <pt x="716" y="284" on="0"/>
        <pt x="669" y="142" on="0"/>
        <pt x="580" y="38" on="0"/>
        <pt x="455" y="-20" on="0"/>
      </contour>
      <contour>
        <pt x="378" y="70" on="1"/>
        <pt x="490" y="70" on="0"/>
        <pt x="610" y="217" on="0"/>
        <pt x="610" y="368" on="1"/>
        <pt x="610" y="518" on="0"/>
        <pt x="487" y="658" on="0"/>
        <pt x="378" y="658" on="1"/>
        <pt x="268" y="658" on="0"/>
        <pt x="146" y="518" on="0"/>
        <pt x="146" y="368" on="1"/>
        <pt x="146" y="217" on="0"/>
        <pt x="266" y="70" on="0"/>
      </contour>
    </TTGlyph>
    <TTGlyph name="afii10100" xMin="-28" yMin="-223" xMax="403" yMax="748">
      <contour>
        <pt x="170" y="447" on="1"/>
        <pt x="82" y="447" on="1"/>
        <pt x="96" y="523" on="1"/>
        <pt x="184" y="523" on="1"/>
        <pt x="205" y="643" on="1"/>
        <pt x="213" y="689" on="0"/>
        <pt x="284" y="748" on="0"/>
        <pt x="338" y="748" on="1"/>
        <pt x="355" y="748" on="0"/>
        <pt x="392" y="733" on="0"/>
        <pt x="403" y="727" on="1"/>
        <pt x="390" y="655" on="1"/>
        <pt x="385" y="661" on="0"/>
        <pt x="358" y="670" on="0"/>
        <pt x="349" y="670" on="1"/>
        <pt x="326" y="670" on="0"/>
        <pt x="294" y="639" on="0"/>
        <pt x="291" y="619" on="1"/>
        <pt x="274" y="523" on="1"/>
        <pt x="362" y="523" on="1"/>
        <pt x="348" y="447" on="1"/>
        <pt x="260" y="447" on="1"/>
        <pt x="166" y="-89" on="1"/>
        <pt x="154" y="-157" on="0"/>
        <pt x="69" y="-223" on="0"/>
        <pt x="16" y="-223" on="1"/>
        <pt x="5" y="-223" on="0"/>
        <pt x="-20" y="-219" on="0"/>
        <pt x="-28" y="-212" on="1"/>
        <pt x="-15" y="-137" on="1"/>
        <pt x="-8" y="-139" on="0"/>
        <pt x="9" y="-145" on="0"/>
        <pt x="18" y="-145" on="1"/>
        <pt x="44" y="-145" on="0"/>
        <pt x="73" y="-105" on="0"/>
        <pt x="78" y="-76" on="1"/>
      </contour>
    </TTGlyph>
    <TTGlyph name="ampersand" xMin="45" yMin="-20" xMax="668" yMax="748">
      <contour>
        <pt x="606" y="354" on="1"/>
        <pt x="602" y="314" on="0"/>
        <pt x="593" y="254" on="0"/>
        <pt x="578" y="205" on="0"/>
        <pt x="557" y="163" on="0"/>
        <pt x="541" y="142" on="1"/>
        <pt x="668" y="0" on="1"/>
        <pt x="548" y="0" on="1"/>
        <pt x="491" y="75" on="1"/>
        <pt x="474" y="57" on="0"/>
        <pt x="435" y="23" on="0"/>
        <pt x="385" y="-4" on="0"/>
        <pt x="319" y="-20" on="0"/>
        <pt x="275" y="-20" on="1"/>
        <pt x="216" y="-20" on="0"/>
        <pt x="130" y="16" on="0"/>
        <pt x="73" y="74" on="0"/>
        <pt x="45" y="145" on="0"/>
        <pt x="45" y="181" on="1"/>
        <pt x="45" y="218" on="0"/>
        <pt x="74" y="283" on="0"/>
        <pt x="124" y="340" on="0"/>
        <pt x="192" y="388" on="0"/>
        <pt x="231" y="406" on="1"/>
        <pt x="185" y="462" on="1"/>
        <pt x="163" y="492" on="0"/>
        <pt x="138" y="549" on="0"/>
        <pt x="135" y="582" on="1"/>
        <pt x="135" y="617" on="0"/>
        <pt x="162" y="678" on="0"/>
        <pt x="208" y="723" on="0"/>
        <pt x="270" y="748" on="0"/>
        <pt x="305" y="748" on="1"/>
        <pt x="353" y="748" on="0"/>
        <pt x="419" y="723" on="0"/>
        <pt x="461" y="678" on="0"/>
        <pt x="480" y="617" on="0"/>
        <pt x="480" y="582" on="1"/>
        <pt x="480" y="555" on="0"/>
        <pt x="467" y="510" on="0"/>
        <pt x="435" y="465" on="0"/>
        <pt x="383" y="418" on="0"/>
        <pt x="343" y="390" on="1"/>
        <pt x="491" y="214" on="1"/>
        <pt x="504" y="241" on="0"/>
        <pt x="520" y="317" on="0"/>
        <pt x="520" y="354" on="1"/>
      </contour>
      <contour>
        <pt x="305" y="446" on="1"/>
        <pt x="339" y="471" on="0"/>
        <pt x="377" y="515" on="0"/>
        <pt x="394" y="552" on="0"/>
        <pt x="397" y="583" on="0"/>
        <pt x="397" y="595" on="1"/>
        <pt x="397" y="613" on="0"/>
        <pt x="390" y="643" on="0"/>
        <pt x="370" y="665" on="0"/>
        <pt x="334" y="678" on="0"/>
        <pt x="304" y="678" on="1"/>
        <pt x="271" y="678" on="0"/>
        <pt x="218" y="632" on="0"/>
        <pt x="218" y="595" on="1"/>
        <pt x="218" y="570" on="0"/>
        <pt x="238" y="518" on="0"/>
        <pt x="266" y="488" on="1"/>
      </contour>
      <contour>
        <pt x="273" y="354" on="1"/>
        <pt x="250" y="339" on="0"/>
        <pt x="204" y="303" on="0"/>
        <pt x="166" y="261" on="0"/>
        <pt x="142" y="215" on="0"/>
        <pt x="142" y="190" on="1"/>
        <pt x="142" y="162" on="0"/>
        <pt x="165" y="114" on="0"/>
        <pt x="201" y="80" on="0"/>
        <pt x="247" y="60" on="0"/>
        <pt x="271" y="60" on="1"/>
        <pt x="305" y="60" on="0"/>
        <pt x="352" y="70" on="0"/>
        <pt x="389" y="91" on="0"/>
        <pt x="421" y="123" on="0"/>
        <pt x="440" y="145" on="1"/>
      </contour>
    </TTGlyph>
    <TTGlyph name="asciicircum" xMin="5" yMin="456" xMax="597" yMax="728">
      <contour>
        <pt x="355" y="728" on="1"/>
        <pt x="597" y="456" on="1"/>
        <pt x="507" y="456" on="1"/>
        <pt x="301" y="659" on="1"/>
        <pt x="95" y="456" on="1"/>
        <pt x="5" y="456" on="1"/>
        <pt x="247" y="728" on="1"/>
      </contour>
    </TTGlyph>
    <TTGlyph name="asciitilde" xMin="60" yMin="204" xMax="644" yMax="451">
      <contour>
        <pt x="644" y="429" on="1"/>
        <pt x="644" y="318" on="0"/>
        <pt x="550" y="204" on="0"/>
        <pt x="474" y="204" on="1"/>
        <pt x="438" y="204" on="0"/>
        <pt x="390" y="229" on="0"/>
        <pt x="355" y="267" on="0"/>
        <pt x="327" y="310" on="0"/>
        <pt x="295" y="348" on="0"/>
        <pt x="254" y="373" on="0"/>
        <pt x="223" y="373" on="1"/>
        <pt x="196" y="373" on="0"/>
        <pt x="160" y="343" on="0"/>
        <pt x="139" y="297" on="0"/>
        <pt x="130" y="243" on="0"/>
        <pt x="130" y="220" on="1"/>
        <pt x="60" y="220" on="1"/>
        <pt x="60" y="264" on="0"/>
        <pt x="81" y="347" on="0"/>
        <pt x="125" y="412" on="0"/>
        <pt x="190" y="451" on="0"/>
        <pt x="235" y="451" on="1"/>
        <pt x="275" y="451" on="0"/>
        <pt x="330" y="426" on="0"/>
        <pt x="370" y="388" on="0"/>
        <pt x="399" y="345" on="0"/>
        <pt x="427" y="307" on="0"/>
        <pt x="457" y="282" on="0"/>
        <pt x="479" y="282" on="1"/>
        <pt x="495" y="282" on="0"/>
        <pt x="529" y="304" on="0"/>
        <pt x="557" y="343" on="0"/>
        <pt x="574" y="397" on="0"/>
        <pt x="574" y="429" on="1"/>
      </contour>
    </TTGlyph>
    <TTGlyph name="asterisk" xMin="35" yMin="372" xMax="436" yMax="748">
      <contour>
        <pt x="280" y="748" on="1"/>
        <pt x="264" y="593" on="1"/>
        <pt x="406" y="659" on="1"/>
        <pt x="436" y="572" on="1"/>
        <pt x="278" y="538" on="1"/>
        <pt x="390" y="426" on="1"/>
        <pt x="318" y="372" on="1"/>
        <pt x="235" y="505" on="1"/>
        <pt x="151" y="372" on="1"/>
        <pt x="79" y="426" on="1"/>
        <pt x="191" y="538" on="1"/>
        <pt x="35" y="574" on="1"/>
        <pt x="63" y="659" on="1"/>
        <pt x="205" y="593" on="1"/>
        <pt x="189" y="748" on="1"/>
      </contour>
    </TTGlyph>
    <TTGlyph name="at" xMin="140" yMin="-20" xMax="873" yMax="748">
      <contour>
        <pt x="730" y="565" on="1"/>
        <pt x="643" y="263" on="1"/>
        <pt x="635" y="234" on="0"/>
        <pt x="645" y="203" on="0"/>
        <pt x="660" y="203" on="1"/>
        <pt x="673" y="203" on="0"/>
        <pt x="722" y="218" on="0"/>
        <pt x="770" y="265" on="0"/>
        <pt x="805" y="353" on="0"/>
        <pt x="805" y="425" on="1"/>
        <pt x="805" y="483" on="0"/>
        <pt x="762" y="579" on="0"/>
        <pt x="689" y="647" on="0"/>
        <pt x="592" y="684" on="0"/>
        <pt x="537" y="684" on="1"/>
        <pt x="466" y="684" on="0"/>
        <pt x="345" y="635" on="0"/>
        <pt x="257" y="546" on="0"/>
        <pt x="208" y="423" on="0"/>
        <pt x="208" y="348" on="1"/>
        <pt x="208" y="277" on="0"/>
        <pt x="264" y="164" on="0"/>
        <pt x="355" y="86" on="0"/>
        <pt x="469" y="44" on="0"/>
        <pt x="528" y="44" on="1"/>
        <pt x="614" y="44" on="0"/>
        <pt x="738" y="103" on="0"/>
        <pt x="776" y="160" on="1"/>
        <pt x="843" y="160" on="1"/>
        <pt x="824" y="112" on="0"/>
        <pt x="754" y="43" on="0"/>
        <pt x="663" y="0" on="0"/>
        <pt x="559" y="-20" on="0"/>
        <pt x="505" y="-20" on="1"/>
        <pt x="435" y="-20" on="0"/>
        <pt x="304" y="34" on="0"/>
        <pt x="202" y="130" on="0"/>
        <pt x="140" y="264" on="0"/>
        <pt x="140" y="345" on="1"/>
        <pt x="140" y="443" on="0"/>
        <pt x="203" y="594" on="0"/>
        <pt x="311" y="696" on="0"/>
        <pt x="456" y="748" on="0"/>
        <pt x="538" y="748" on="1"/>
        <pt x="605" y="748" on="0"/>
        <pt x="727" y="704" on="0"/>
        <pt x="819" y="623" on="0"/>
        <pt x="873" y="507" on="0"/>
        <pt x="873" y="436" on="1"/>
        <pt x="873" y="363" on="0"/>
        <pt x="833" y="252" on="0"/>
        <pt x="765" y="177" on="0"/>
        <pt x="677" y="139" on="0"/>
        <pt x="628" y="139" on="1"/>
        <pt x="599" y="139" on="0"/>
        <pt x="572" y="165" on="0"/>
        <pt x="562" y="201" on="1"/>
        <pt x="547" y="184" on="0"/>
        <pt x="520" y="161" on="0"/>
        <pt x="493" y="146" on="0"/>
        <pt x="462" y="139" on="0"/>
        <pt x="442" y="139" on="1"/>
        <pt x="406" y="139" on="0"/>
        <pt x="350" y="167" on="0"/>
        <pt x="311" y="213" on="0"/>
        <pt x="290" y="270" on="0"/>
        <pt x="290" y="300" on="1"/>
        <pt x="290" y="349" on="0"/>
        <pt x="324" y="449" on="0"/>
        <pt x="386" y="530" on="0"/>
        <pt x="472" y="581" on="0"/>
        <pt x="524" y="581" on="1"/>
        <pt x="551" y="581" on="0"/>
        <pt x="591" y="560" on="0"/>
        <pt x="620" y="533" on="0"/>
        <pt x="637" y="507" on="0"/>
        <pt x="640" y="501" on="1"/>
        <pt x="662" y="565" on="1"/>
      </contour>
      <contour>
        <pt x="606" y="378" on="1"/>
        <pt x="614" y="408" on="0"/>
        <pt x="608" y="455" on="0"/>
        <pt x="584" y="489" on="0"/>
        <pt x="548" y="507" on="0"/>
        <pt x="526" y="507" on="1"/>
        <pt x="496" y="507" on="0"/>
        <pt x="441" y="470" on="0"/>
        <pt x="399" y="412" on="0"/>
        <pt x="374" y="342" on="0"/>
        <pt x="374" y="309" on="1"/>
        <pt x="374" y="271" on="0"/>
        <pt x="416" y="213" on="0"/>
        <pt x="458" y="213" on="1"/>
        <pt x="500" y="213" on="0"/>
        <pt x="567" y="260" on="0"/>
        <pt x="585" y="315" on="1"/>
      </contour>
    </TTGlyph>
    <TTGlyph name="b" xMin="60" yMin="-10" xMax="511" yMax="728">
      <contour>
        <pt x="148" y="728" on="1"/>
        <pt x="148" y="451" on="1"/>
        <pt x="150" y="451" on="1"/>
        <pt x="172" y="484" on="0"/>
        <pt x="245" y="533" on="0"/>
        <pt x="301" y="533" on="1"/>
        <pt x="350" y="533" on="0"/>
        <pt x="428" y="493" on="0"/>
        <pt x="482" y="423" on="0"/>
        <pt x="511" y="324" on="0"/>
        <pt x="511" y="266" on="1"/>
        <pt x="511" y="211" on="0"/>
        <pt x="485" y="111" on="0"/>
        <pt x="434" y="35" on="0"/>
        <pt x="358" y="-10" on="0"/>
        <pt x="308" y="-10" on="1"/>
        <pt x="259" y="-10" on="0"/>
        <pt x="176" y="25" on="0"/>
        <pt x="150" y="69" on="1"/>
        <pt x="148" y="69" on="1"/>
        <pt x="148" y="0" on="1"/>
        <pt x="60" y="0" on="1"/>
        <pt x="60" y="728" on="1"/>
      </contour>
      <contour>
        <pt x="283" y="455" on="1"/>
        <pt x="253" y="455" on="0"/>
        <pt x="204" y="428" on="0"/>
        <pt x="168" y="378" on="0"/>
        <pt x="149" y="309" on="0"/>
        <pt x="149" y="266" on="1"/>
        <pt x="149" y="228" on="0"/>
        <pt x="161" y="156" on="0"/>
        <pt x="191" y="100" on="0"/>
        <pt x="242" y="66" on="0"/>
        <pt x="282" y="66" on="1"/>
        <pt x="315" y="66" on="0"/>
        <pt x="366" y="98" on="0"/>
        <pt x="401" y="153" on="0"/>
        <pt x="419" y="226" on="0"/>
        <pt x="419" y="266" on="1"/>
        <pt x="419" y="302" on="0"/>
        <pt x="402" y="370" on="0"/>
        <pt x="368" y="423" on="0"/>
        <pt x="317" y="455" on="0"/>
      </contour>
    </TTGlyph>
    <TTGlyph name="bar" xMin="90" yMin="-141" xMax="161" yMax="828">
      <contour>
        <pt x="161" y="828" on="1"/>
        <pt x="161" y="-141" on="1"/>
        <pt x="90" y="-141" on="1"/>
        <pt x="90" y="828" on="1"/>
      </contour>
    </TTGlyph>
    <TTGlyph name="braceleft" xMin="40" yMin="-141" xMax="303" yMax="798">
      <contour>
        <pt x="40" y="362" on="1"/>
        <pt x="70" y="362" on="1"/>
        <pt x="90" y="362" on="0"/>
        <pt x="115" y="380" on="0"/>
        <pt x="128" y="407" on="0"/>
        <pt x="133" y="438" on="0"/>
        <pt x="133" y="452" on="1"/>
        <pt x="133" y="686" on="1"/>
        <pt x="133" y="712" on="0"/>
        <pt x="153" y="754" on="0"/>
        <pt x="186" y="783" on="0"/>
        <pt x="228" y="798" on="0"/>
        <pt x="250" y="798" on="1"/>
        <pt x="303" y="798" on="1"/>
        <pt x="303" y="728" on="1"/>
        <pt x="290" y="728" on="1"/>
        <pt x="260" y="728" on="0"/>
        <pt x="213" y="694" on="0"/>
        <pt x="213" y="668" on="1"/>
        <pt x="213" y="414" on="1"/>
        <pt x="213" y="375" on="0"/>
        <pt x="164" y="333" on="0"/>
        <pt x="122" y="327" on="1"/>
        <pt x="161" y="319" on="0"/>
        <pt x="213" y="279" on="0"/>
        <pt x="213" y="240" on="1"/>
        <pt x="213" y="-10" on="1"/>
        <pt x="213" y="-39" on="0"/>
        <pt x="260" y="-71" on="0"/>
        <pt x="290" y="-71" on="1"/>
        <pt x="303" y="-71" on="1"/>
        <pt x="303" y="-141" on="1"/>
        <pt x="250" y="-141" on="1"/>
        <pt x="228" y="-141" on="0"/>
        <pt x="186" y="-124" on="0"/>
        <pt x="153" y="-93" on="0"/>
        <pt x="133" y="-51" on="0"/>
        <pt x="133" y="-26" on="1"/>
        <pt x="133" y="202" on="1"/>
        <pt x="133" y="218" on="0"/>
        <pt x="128" y="250" on="0"/>
        <pt x="115" y="276" on="0"/>
        <pt x="90" y="292" on="0"/>
        <pt x="70" y="292" on="1"/>
        <pt x="40" y="292" on="1"/>
      </contour>
    </TTGlyph>
    <TTGlyph name="bracketleft" xMin="60" yMin="-141" xMax="250" yMax="798">
      <contour>
        <pt x="250" y="798" on="1"/>
        <pt x="250" y="728" on="1"/>
        <pt x="150" y="728" on="1"/>
        <pt x="150" y="-71" on="1"/>
        <pt x="250" y="-71" on="1"/>
        <pt x="250" y="-141" on="1"/>
        <pt x="60" y="-141" on="1"/>
        <pt x="60" y="798" on="1"/>
      </contour>
    </TTGlyph>
    <TTGlyph name="bracketright" xMin="22" yMin="-141" xMax="212" yMax="798">
      <contour>
        <pt x="212" y="-141" on="1"/>
        <pt x="22" y="-141" on="1"/>
        <pt x="22" y="-71" on="1"/>
        <pt x="122" y="-71" on="1"/>
        <pt x="122" y="728" on="1"/>
        <pt x="22" y="728" on="1"/>
        <pt x="22" y="798" on="1"/>
        <pt x="212" y="798" on="1"/>
      </contour>
    </TTGlyph>
    <TTGlyph name="c" xMin="36" yMin="-10" xMax="484" yMax="533">
      <contour>
        <pt x="392" y="355" on="1"/>
        <pt x="383" y="411" on="0"/>
        <pt x="319" y="455" on="0"/>
        <pt x="262" y="455" on="1"/>
        <pt x="226" y="455" on="0"/>
        <pt x="176" y="425" on="0"/>
        <pt x="143" y="374" on="0"/>
        <pt x="128" y="306" on="0"/>
        <pt x="128" y="269" on="1"/>
        <pt x="128" y="231" on="0"/>
        <pt x="143" y="158" on="0"/>
        <pt x="174" y="101" on="0"/>
        <pt x="225" y="66" on="0"/>
        <pt x="261" y="66" on="1"/>
        <pt x="321" y="66" on="0"/>
        <pt x="384" y="134" on="0"/>
        <pt x="392" y="191" on="1"/>
        <pt x="484" y="192" on="1"/>
        <pt x="476" y="98" on="0"/>
        <pt x="360" y="-10" on="0"/>
        <pt x="261" y="-10" on="1"/>
        <pt x="203" y="-10" on="0"/>
        <pt x="118" y="39" on="0"/>
        <pt x="63" y="119" on="0"/>
        <pt x="36" y="219" on="0"/>
        <pt x="36" y="269" on="1"/>
        <pt x="36" y="324" on="0"/>
        <pt x="68" y="421" on="0"/>
        <pt x="127" y="492" on="0"/>
        <pt x="210" y="533" on="0"/>
        <pt x="261" y="533" on="1"/>
        <pt x="310" y="533" on="0"/>
        <pt x="388" y="505" on="0"/>
        <pt x="444" y="457" on="0"/>
        <pt x="478" y="392" on="0"/>
        <pt x="484" y="355" on="1"/>
      </contour>
    </TTGlyph>
    <TTGlyph name="colon" xMin="-142" yMin="-19" xMax="427" yMax="645">
      <contour>
        <pt x="176" y="523" on="1"/>
        <pt x="176" y="413" on="1"/>
        <pt x="78" y="413" on="1"/>
        <pt x="78" y="523" on="1"/>
      </contour>
      <contour>
        <pt x="176" y="110" on="1"/>
        <pt x="176" y="0" on="1"/>
        <pt x="78" y="0" on="1"/>
        <pt x="78" y="110" on="1"/>
      </contour>
      <contour>
        <pt x="-57" y="316" on="1"/>
        <pt x="88" y="316" on="1"/>
        <pt x="88" y="259" on="1"/>
        <pt x="-57" y="259" on="1"/>
      </contour>
      <contour>
        <pt x="174" y="307" on="1"/>
        <pt x="389" y="307" on="1"/>
        <pt x="389" y="209" on="1"/>
        <pt x="174" y="209" on="1"/>
      </contour>
      <contour>
        <pt x="332" y="471" on="1"/>
        <pt x="427" y="471" on="1"/>
        <pt x="427" y="401" on="1"/>
        <pt x="332" y="401" on="1"/>
      </contour>
      <contour>
        <pt x="231" y="588" on="1"/>
        <pt x="373" y="588" on="1"/>
        <pt x="373" y="499" on="1"/>
        <pt x="231" y="499" on="1"/>
      </contour>
      <contour>
        <pt x="-13" y="645" on="1"/>
        <pt x="54" y="645" on="1"/>
        <pt x="54" y="521" on="1"/>
        <pt x="-13" y="521" on="1"/>
      </contour>
      <contour>
        <pt x="-142" y="389" on="1"/>
        <pt x="-3" y="389" on="1"/>
        <pt x="-3" y="272" on="1"/>
        <pt x="-142" y="272" on="1"/>
      </contour>
      <contour>
        <pt x="22" y="82" on="1"/>
        <pt x="152" y="82" on="1"/>
        <pt x="152" y="-19" on="1"/>
        <pt x="22" y="-19" on="1"/>
      </contour>
    </TTGlyph>
    <TTGlyph name="comma" xMin="88" yMin="-150" xMax="186" yMax="110">
      <contour>
        <pt x="186" y="110" on="1"/>
        <pt x="186" y="-20" on="1"/>
        <pt x="186" y="-72" on="0"/>
        <pt x="133" y="-140" on="0"/>
        <pt x="88" y="-150" on="1"/>
        <pt x="88" y="-102" on="1"/>
        <pt x="118" y="-92" on="0"/>
        <pt x="136" y="-52" on="0"/>
        <pt x="136" y="-20" on="1"/>
        <pt x="136" y="0" on="1"/>
        <pt x="88" y="0" on="1"/>
        <pt x="88" y="110" on="1"/>
      </contour>
    </TTGlyph>
    <TTGlyph name="d" xMin="36" yMin="-10" xMax="493" yMax="728">
      <contour>
        <pt x="405" y="69" on="1"/>
        <pt x="403" y="69" on="1"/>
        <pt x="376" y="25" on="0"/>
        <pt x="296" y="-10" on="0"/>
        <pt x="247" y="-10" on="1"/>
        <pt x="197" y="-10" on="0"/>
        <pt x="118" y="34" on="0"/>
        <pt x="64" y="109" on="0"/>
        <pt x="36" y="209" on="0"/>
        <pt x="36" y="266" on="1"/>
        <pt x="36" y="324" on="0"/>
        <pt x="68" y="423" on="0"/>
        <pt x="125" y="493" on="0"/>
        <pt x="205" y="533" on="0"/>
        <pt x="253" y="533" on="1"/>
        <pt x="310" y="533" on="0"/>
        <pt x="381" y="484" on="0"/>
        <pt x="403" y="451" on="1"/>
        <pt x="405" y="451" on="1"/>
        <pt x="405" y="728" on="1"/>
        <pt x="493" y="728" on="1"/>
        <pt x="493" y="0" on="1"/>
        <pt x="405" y="0" on="1"/>
      </contour>
      <contour>
        <pt x="272" y="455" on="1"/>
        <pt x="238" y="455" on="0"/>
        <pt x="185" y="423" on="0"/>
        <pt x="148" y="370" on="0"/>
        <pt x="128" y="302" on="0"/>
        <pt x="128" y="266" on="1"/>
        <pt x="128" y="226" on="0"/>
        <pt x="148" y="153" on="0"/>
        <pt x="185" y="98" on="0"/>
        <pt x="239" y="66" on="0"/>
        <pt x="272" y="66" on="1"/>
        <pt x="312" y="66" on="0"/>
        <pt x="363" y="100" on="0"/>
        <pt x="393" y="156" on="0"/>
        <pt x="405" y="228" on="0"/>
        <pt x="405" y="266" on="1"/>
        <pt x="405" y="352" on="0"/>
        <pt x="332" y="455" on="0"/>
      </contour>
    </TTGlyph>
    <TTGlyph name="dagger" xMin="40" yMin="-141" xMax="397" yMax="749">
      <contour>
        <pt x="254" y="749" on="1"/>
        <pt x="254" y="523" on="1"/>
        <pt x="397" y="523" on="1"/>
        <pt x="397" y="453" on="1"/>
        <pt x="254" y="453" on="1"/>
        <pt x="254" y="-141" on="1"/>
        <pt x="183" y="-141" on="1"/>
        <pt x="183" y="453" on="1"/>
        <pt x="40" y="453" on="1"/>
        <pt x="40" y="523" on="1"/>
        <pt x="183" y="523" on="1"/>
        <pt x="183" y="749" on="1"/>
      </contour>
    </TTGlyph>
    <TTGlyph name="daggerdbl" xMin="40" yMin="-141" xMax="397" yMax="749">
      <contour>
        <pt x="254" y="749" on="1"/>
        <pt x="254" y="523" on="1"/>
        <pt x="397" y="523" on="1"/>
        <pt x="397" y="453" on="1"/>
        <pt x="254" y="453" on="1"/>
        <pt x="254" y="310" on="1"/>
        <pt x="397" y="310" on="1"/>
        <pt x="397" y="240" on="1"/>
        <pt x="254" y="240" on="1"/>
        <pt x="254" y="-141" on="1"/>
        <pt x="183" y="-141" on="1"/>
        <pt x="183" y="240" on="1"/>
        <pt x="40" y="240" on="1"/>
        <pt x="40" y="310" on="1"/>
        <pt x="183" y="310" on="1"/>
        <pt x="183" y="453" on="1"/>
        <pt x="40" y="453" on="1"/>
        <pt x="40" y="523" on="1"/>
        <pt x="183" y="523" on="1"/>
        <pt x="183" y="749" on="1"/>
      </contour>
    </TTGlyph>
    <TTGlyph name="dollar" xMin="32" yMin="-69" xMax="517" yMax="765">
      <contour>
        <pt x="295" y="765" on="1"/>
        <pt x="295" y="707" on="1"/>
        <pt x="333" y="707" on="0"/>
        <pt x="404" y="682" on="0"/>
        <pt x="461" y="634" on="0"/>
        <pt x="500" y="562" on="0"/>
        <pt x="506" y="516" on="1"/>
        <pt x="416" y="516" on="1"/>
        <pt x="411" y="537" on="0"/>
        <pt x="391" y="577" on="0"/>
        <pt x="361" y="607" on="0"/>
        <pt x="320" y="626" on="0"/>
        <pt x="295" y="626" on="1"/>
        <pt x="295" y="393" on="1"/>
        <pt x="344" y="379" on="0"/>
        <pt x="425" y="343" on="0"/>
        <pt x="484" y="293" on="0"/>
        <pt x="517" y="224" on="0"/>
        <pt x="517" y="176" on="1"/>
        <pt x="517" y="122" on="0"/>
        <pt x="476" y="50" on="0"/>
        <pt x="412" y="7" on="0"/>
        <pt x="333" y="-10" on="0"/>
        <pt x="295" y="-10" on="1"/>
        <pt x="295" y="-69" on="1"/>
        <pt x="246" y="-69" on="1"/>
        <pt x="246" y="-10" on="1"/>
        <pt x="206" y="-10" on="0"/>
        <pt x="132" y="25" on="0"/>
        <pt x="74" y="88" on="0"/>
        <pt x="36" y="176" on="0"/>
        <pt x="32" y="230" on="1"/>
        <pt x="121" y="228" on="1"/>
        <pt x="132" y="151" on="0"/>
        <pt x="198" y="70" on="0"/>
        <pt x="246" y="70" on="1"/>
        <pt x="246" y="317" on="1"/>
        <pt x="199" y="331" on="0"/>
        <pt x="125" y="365" on="0"/>
        <pt x="74" y="413" on="0"/>
        <pt x="47" y="479" on="0"/>
        <pt x="47" y="527" on="1"/>
        <pt x="47" y="564" on="0"/>
        <pt x="78" y="629" on="0"/>
        <pt x="132" y="678" on="0"/>
        <pt x="204" y="707" on="0"/>
        <pt x="246" y="707" on="1"/>
        <pt x="246" y="765" on="1"/>
      </contour>
      <contour>
        <pt x="246" y="626" on="1"/>
        <pt x="195" y="626" on="0"/>
        <pt x="139" y="571" on="0"/>
        <pt x="139" y="529" on="1"/>
        <pt x="139" y="488" on="0"/>
        <pt x="192" y="424" on="0"/>
        <pt x="246" y="404" on="1"/>
      </contour>
      <contour>
        <pt x="295" y="70" on="1"/>
        <pt x="322" y="70" on="0"/>
        <pt x="370" y="86" on="0"/>
        <pt x="405" y="114" on="0"/>
        <pt x="425" y="152" on="0"/>
        <pt x="425" y="175" on="1"/>
        <pt x="425" y="218" on="0"/>
        <pt x="368" y="275" on="0"/>
        <pt x="295" y="301" on="1"/>
      </contour>
    </TTGlyph>
    <TTGlyph name="e" xMin="36" yMin="-10" xMax="510" yMax="533">
      <contour>
        <pt x="128" y="242" on="1"/>
        <pt x="128" y="208" on="0"/>
        <pt x="150" y="145" on="0"/>
        <pt x="189" y="96" on="0"/>
        <pt x="244" y="66" on="0"/>
        <pt x="276" y="66" on="1"/>
        <pt x="386" y="66" on="0"/>
        <pt x="418" y="170" on="1"/>
        <pt x="498" y="170" on="1"/>
        <pt x="492" y="127" on="0"/>
        <pt x="451" y="60" on="0"/>
        <pt x="391" y="14" on="0"/>
        <pt x="316" y="-10" on="0"/>
        <pt x="276" y="-10" on="1"/>
        <pt x="221" y="-10" on="0"/>
        <pt x="132" y="35" on="0"/>
        <pt x="70" y="111" on="0"/>
        <pt x="36" y="213" on="0"/>
        <pt x="36" y="269" on="1"/>
        <pt x="36" y="321" on="0"/>
        <pt x="69" y="417" on="0"/>
        <pt x="131" y="490" on="0"/>
        <pt x="220" y="533" on="0"/>
        <pt x="275" y="533" on="1"/>
        <pt x="329" y="533" on="0"/>
        <pt x="415" y="494" on="0"/>
        <pt x="477" y="426" on="0"/>
        <pt x="510" y="332" on="0"/>
        <pt x="510" y="277" on="1"/>
        <pt x="510" y="242" on="1"/>
      </contour>
      <contour>
        <pt x="418" y="312" on="1"/>
        <pt x="418" y="342" on="0"/>
        <pt x="398" y="395" on="0"/>
        <pt x="360" y="433" on="0"/>
        <pt x="305" y="455" on="0"/>
        <pt x="271" y="455" on="1"/>
        <pt x="239" y="455" on="0"/>
        <pt x="187" y="431" on="0"/>
        <pt x="149" y="391" on="0"/>
        <pt x="128" y="339" on="0"/>
        <pt x="128" y="312" on="1"/>
      </contour>
    </TTGlyph>
    <TTGlyph name="eight" xMin="36" yMin="-11" xMax="518" yMax="707">
      <contour>
        <pt x="277" y="707" on="1"/>
        <pt x="328" y="707" on="0"/>
        <pt x="411" y="680" on="0"/>
        <pt x="470" y="632" on="0"/>
        <pt x="501" y="569" on="0"/>
        <pt x="501" y="533" on="1"/>
        <pt x="501" y="473" on="0"/>
        <pt x="446" y="395" on="0"/>
        <pt x="401" y="374" on="1"/>
        <pt x="433" y="365" on="0"/>
        <pt x="477" y="328" on="0"/>
        <pt x="505" y="280" on="0"/>
        <pt x="518" y="225" on="0"/>
        <pt x="518" y="198" on="1"/>
        <pt x="518" y="157" on="0"/>
        <pt x="484" y="82" on="0"/>
        <pt x="422" y="24" on="0"/>
        <pt x="332" y="-11" on="0"/>
        <pt x="277" y="-11" on="1"/>
        <pt x="222" y="-11" on="0"/>
        <pt x="133" y="23" on="0"/>
        <pt x="70" y="81" on="0"/>
        <pt x="36" y="155" on="0"/>
        <pt x="36" y="196" on="1"/>
        <pt x="36" y="223" on="0"/>
        <pt x="49" y="279" on="0"/>
        <pt x="77" y="327" on="0"/>
        <pt x="121" y="365" on="0"/>
        <pt x="153" y="374" on="1"/>
        <pt x="107" y="394" on="0"/>
        <pt x="53" y="473" on="0"/>
        <pt x="53" y="533" on="1"/>
        <pt x="53" y="569" on="0"/>
        <pt x="83" y="633" on="0"/>
        <pt x="141" y="680" on="0"/>
        <pt x="224" y="707" on="0"/>
      </contour>
      <contour>
        <pt x="278" y="628" on="1"/>
        <pt x="246" y="628" on="0"/>
        <pt x="199" y="610" on="0"/>
        <pt x="168" y="581" on="0"/>
        <pt x="153" y="543" on="0"/>
        <pt x="153" y="523" on="1"/>
        <pt x="153" y="502" on="0"/>
        <pt x="169" y="462" on="0"/>
        <pt x="200" y="431" on="0"/>
        <pt x="247" y="412" on="0"/>
        <pt x="278" y="412" on="1"/>
        <pt x="308" y="412" on="0"/>
        <pt x="354" y="431" on="0"/>
        <pt x="385" y="462" on="0"/>
        <pt x="401" y="502" on="0"/>
        <pt x="401" y="523" on="1"/>
        <pt x="401" y="543" on="0"/>
        <pt x="386" y="581" on="0"/>
        <pt x="356" y="610" on="0"/>
        <pt x="310" y="628" on="0"/>
      </contour>
      <contour>
        <pt x="277" y="332" on="1"/>
        <pt x="242" y="332" on="0"/>
        <pt x="189" y="308" on="0"/>
        <pt x="154" y="270" on="0"/>
        <pt x="136" y="222" on="0"/>
        <pt x="136" y="197" on="1"/>
        <pt x="136" y="172" on="0"/>
        <pt x="158" y="126" on="0"/>
        <pt x="196" y="91" on="0"/>
        <pt x="248" y="70" on="0"/>
        <pt x="278" y="70" on="1"/>
        <pt x="314" y="70" on="0"/>
        <pt x="366" y="91" on="0"/>
        <pt x="401" y="127" on="0"/>
        <pt x="418" y="173" on="0"/>
        <pt x="418" y="197" on="1"/>
        <pt x="418" y="222" on="0"/>
        <pt x="399" y="270" on="0"/>
        <pt x="363" y="308" on="0"/>
        <pt x="311" y="332" on="0"/>
      </contour>
    </TTGlyph>
    <TTGlyph name="ellipsis" xMin="90" yMin="0" xMax="735" yMax="110">
      <contour>
        <pt x="188" y="110" on="1"/>
        <pt x="188" y="0" on="1"/>
        <pt x="90" y="0" on="1"/>
        <pt x="90" y="110" on="1"/>
      </contour>
      <contour>
        <pt x="462" y="110" on="1"/>
        <pt x="462" y="0" on="1"/>
        <pt x="364" y="0" on="1"/>
        <pt x="364" y="110" on="1"/>
      </contour>
      <contour>
        <pt x="735" y="110" on="1"/>
        <pt x="735" y="0" on="1"/>
        <pt x="637" y="0" on="1"/>
        <pt x="637" y="110" on="1"/>
      </contour>
    </TTGlyph>
    <TTGlyph name="emdash" xMin="20" yMin="243" xMax="740" yMax="321">
      <contour>
        <pt x="740" y="321" on="1"/>
        <pt x="740" y="243" on="1"/>
        <pt x="20" y="243" on="1"/>
        <pt x="20" y="321" on="1"/>
      </contour>
    </TTGlyph>
    <TTGlyph name="endash" xMin="20" yMin="243" xMax="616" yMax="309">
      <contour>
        <pt x="616" y="309" on="1"/>
        <pt x="616" y="243" on="1"/>
        <pt x="20" y="243" on="1"/>
        <pt x="20" y="309" on="1"/>
      </contour>
    </TTGlyph>
    <TTGlyph name="exclam" xMin="90" yMin="0" xMax="188" yMax="728">
      <contour>
        <pt x="188" y="728" on="1"/>
        <pt x="188" y="426" on="1"/>
        <pt x="168" y="182" on="1"/>
        <pt x="109" y="182" on="1"/>
        <pt x="90" y="425" on="1"/>
        <pt x="90" y="728" on="1"/>
      </contour>
      <contour>
        <pt x="188" y="110" on="1"/>
        <pt x="188" y="0" on="1"/>
        <pt x="90" y="0" on="1"/>
        <pt x="90" y="110" on="1"/>
      </contour>
    </TTGlyph>
    <TTGlyph name="f" xMin="12" yMin="0" xMax="283" yMax="748">
      <contour>
        <pt x="100" y="523" on="1"/>
        <pt x="100" y="643" on="1"/>
        <pt x="100" y="689" on="0"/>
        <pt x="160" y="748" on="0"/>
        <pt x="214" y="748" on="1"/>
        <pt x="231" y="748" on="0"/>
        <pt x="271" y="733" on="0"/>
        <pt x="283" y="727" on="1"/>
        <pt x="283" y="655" on="1"/>
        <pt x="276" y="661" on="0"/>
        <pt x="248" y="670" on="0"/>
        <pt x="239" y="670" on="1"/>
        <pt x="216" y="670" on="0"/>
        <pt x="190" y="639" on="0"/>
        <pt x="190" y="619" on="1"/>
        <pt x="190" y="523" on="1"/>
        <pt x="278" y="523" on="1"/>
        <pt x="278" y="447" on="1"/>
        <pt x="190" y="447" on="1"/>
        <pt x="190" y="0" on="1"/>
        <pt x="100" y="0" on="1"/>
        <pt x="100" y="447" on="1"/>
        <pt x="12" y="447" on="1"/>
        <pt x="12" y="523" on="1"/>
      </contour>
    </TTGlyph>
    <TTGlyph name="five" xMin="24" yMin="-10" xMax="519" yMax="698">
      <contour>
        <pt x="47" y="322" on="1"/>
        <pt x="95" y="698" on="1"/>
        <pt x="477" y="698" on="1"/>
        <pt x="477" y="618" on="1"/>
        <pt x="164" y="618" on="1"/>
        <pt x="143" y="423" on="1"/>
        <pt x="147" y="422" on="1"/>
        <pt x="174" y="445" on="0"/>
        <pt x="247" y="466" on="0"/>
        <pt x="282" y="466" on="1"/>
        <pt x="333" y="466" on="0"/>
        <pt x="420" y="429" on="0"/>
        <pt x="483" y="364" on="0"/>
        <pt x="519" y="277" on="0"/>
        <pt x="519" y="227" on="1"/>
        <pt x="519" y="181" on="0"/>
        <pt x="487" y="96" on="0"/>
        <pt x="424" y="30" on="0"/>
        <pt x="327" y="-10" on="0"/>
        <pt x="263" y="-10" on="1"/>
        <pt x="218" y="-10" on="0"/>
        <pt x="139" y="16" on="0"/>
        <pt x="76" y="66" on="0"/>
        <pt x="33" y="140" on="0"/>
        <pt x="24" y="189" on="1"/>
        <pt x="124" y="189" on="1"/>
        <pt x="138" y="133" on="0"/>
        <pt x="214" y="70" on="0"/>
        <pt x="264" y="70" on="1"/>
        <pt x="298" y="70" on="0"/>
        <pt x="356" y="95" on="0"/>
        <pt x="396" y="138" on="0"/>
        <pt x="419" y="196" on="0"/>
        <pt x="419" y="230" on="1"/>
        <pt x="419" y="264" on="0"/>
        <pt x="391" y="321" on="0"/>
        <pt x="346" y="363" on="0"/>
        <pt x="287" y="386" on="0"/>
        <pt x="256" y="386" on="1"/>
        <pt x="221" y="386" on="0"/>
        <pt x="157" y="356" on="0"/>
        <pt x="134" y="322" on="1"/>
      </contour>
    </TTGlyph>
    <TTGlyph name="four" xMin="34" yMin="0" xMax="528" yMax="698">
      <contour>
        <pt x="337" y="0" on="1"/>
        <pt x="337" y="170" on="1"/>
        <pt x="34" y="170" on="1"/>
        <pt x="34" y="271" on="1"/>
        <pt x="337" y="698" on="1"/>
        <pt x="427" y="698" on="1"/>
        <pt x="427" y="250" on="1"/>
        <pt x="528" y="250" on="1"/>
        <pt x="528" y="170" on="1"/>
        <pt x="427" y="170" on="1"/>
        <pt x="427" y="0" on="1"/>
      </contour>
      <contour>
        <pt x="117" y="250" on="1"/>
        <pt x="337" y="250" on="1"/>
        <pt x="337" y="564" on="1"/>
      </contour>
    </TTGlyph>
    <TTGlyph name="g" xMin="34" yMin="-223" xMax="491" yMax="533">
      <contour>
        <pt x="491" y="523" on="1"/>
        <pt x="491" y="0" on="1"/>
        <pt x="491" y="-54" on="0"/>
        <pt x="453" y="-138" on="0"/>
        <pt x="390" y="-194" on="0"/>
        <pt x="311" y="-223" on="0"/>
        <pt x="269" y="-223" on="1"/>
        <pt x="231" y="-223" on="0"/>
        <pt x="164" y="-206" on="0"/>
        <pt x="108" y="-167" on="0"/>
        <pt x="65" y="-106" on="0"/>
        <pt x="53" y="-61" on="1"/>
        <pt x="139" y="-61" on="1"/>
        <pt x="150" y="-88" on="0"/>
        <pt x="175" y="-123" on="0"/>
        <pt x="206" y="-142" on="0"/>
        <pt x="244" y="-149" on="0"/>
        <pt x="268" y="-149" on="1"/>
        <pt x="295" y="-149" on="0"/>
        <pt x="344" y="-127" on="0"/>
        <pt x="381" y="-89" on="0"/>
        <pt x="403" y="-39" on="0"/>
        <pt x="403" y="-11" on="1"/>
        <pt x="403" y="69" on="1"/>
        <pt x="401" y="69" on="1"/>
        <pt x="372" y="29" on="0"/>
        <pt x="302" y="-10" on="0"/>
        <pt x="254" y="-10" on="1"/>
        <pt x="197" y="-10" on="0"/>
        <pt x="114" y="38" on="0"/>
        <pt x="60" y="117" on="0"/>
        <pt x="34" y="216" on="0"/>
        <pt x="34" y="267" on="1"/>
        <pt x="34" y="321" on="0"/>
        <pt x="60" y="417" on="0"/>
        <pt x="114" y="490" on="0"/>
        <pt x="196" y="533" on="0"/>
        <pt x="253" y="533" on="1"/>
        <pt x="300" y="533" on="0"/>
        <pt x="375" y="490" on="0"/>
        <pt x="402" y="454" on="1"/>
        <pt x="403" y="454" on="1"/>
        <pt x="403" y="523" on="1"/>
      </contour>
      <contour>
        <pt x="269" y="455" on="1"/>
        <pt x="230" y="455" on="0"/>
        <pt x="175" y="421" on="0"/>
        <pt x="141" y="367" on="0"/>
        <pt x="126" y="300" on="0"/>
        <pt x="126" y="267" on="1"/>
        <pt x="126" y="231" on="0"/>
        <pt x="140" y="159" on="0"/>
        <pt x="173" y="102" on="0"/>
        <pt x="227" y="66" on="0"/>
        <pt x="268" y="66" on="1"/>
        <pt x="311" y="66" on="0"/>
        <pt x="364" y="102" on="0"/>
        <pt x="393" y="161" on="0"/>
        <pt x="403" y="233" on="0"/>
        <pt x="403" y="269" on="1"/>
        <pt x="403" y="306" on="0"/>
        <pt x="391" y="374" on="0"/>
        <pt x="361" y="425" on="0"/>
        <pt x="309" y="455" on="0"/>
      </contour>
    </TTGlyph>
    <TTGlyph name="grave" xMin="36" yMin="489" xMax="134" yMax="749">
      <contour>
        <pt x="36" y="489" on="1"/>
        <pt x="36" y="619" on="1"/>
        <pt x="36" y="671" on="0"/>
        <pt x="89" y="739" on="0"/>
        <pt x="134" y="749" on="1"/>
        <pt x="134" y="701" on="1"/>
        <pt x="104" y="691" on="0"/>
        <pt x="86" y="651" on="0"/>
        <pt x="86" y="619" on="1"/>
        <pt x="86" y="599" on="1"/>
        <pt x="134" y="599" on="1"/>
        <pt x="134" y="489" on="1"/>
      </contour>
    </TTGlyph>
    <TTGlyph name="greater" xMin="60" yMin="49" xMax="548" yMax="533">
      <contour>
        <pt x="60" y="49" on="1"/>
        <pt x="60" y="127" on="1"/>
        <pt x="462" y="290" on="1"/>
        <pt x="462" y="292" on="1"/>
        <pt x="60" y="455" on="1"/>
        <pt x="60" y="533" on="1"/>
        <pt x="548" y="321" on="1"/>
        <pt x="548" y="261" on="1"/>
      </contour>
    </TTGlyph>
    <TTGlyph name="h" xMin="64" yMin="0" xMax="488" yMax="728">
      <contour>
        <pt x="152" y="728" on="1"/>
        <pt x="152" y="455" on="1"/>
        <pt x="154" y="455" on="1"/>
        <pt x="189" y="499" on="0"/>
        <pt x="270" y="533" on="0"/>
        <pt x="321" y="533" on="1"/>
        <pt x="397" y="533" on="0"/>
        <pt x="488" y="461" on="0"/>
        <pt x="488" y="395" on="1"/>
        <pt x="488" y="0" on="1"/>
        <pt x="400" y="0" on="1"/>
        <pt x="400" y="367" on="1"/>
        <pt x="400" y="392" on="0"/>
        <pt x="383" y="426" on="0"/>
        <pt x="354" y="447" on="0"/>
        <pt x="317" y="455" on="0"/>
        <pt x="297" y="455" on="1"/>
        <pt x="272" y="455" on="0"/>
        <pt x="220" y="436" on="0"/>
        <pt x="178" y="403" on="0"/>
        <pt x="152" y="358" on="0"/>
        <pt x="152" y="333" on="1"/>
        <pt x="152" y="0" on="1"/>
        <pt x="64" y="0" on="1"/>
        <pt x="64" y="728" on="1"/>
      </contour>
    </TTGlyph>
    <TTGlyph name="hyphen" xMin="45" yMin="243" xMax="286" yMax="321">
      <contour>
        <pt x="286" y="321" on="1"/>
        <pt x="286" y="243" on="1"/>
        <pt x="45" y="243" on="1"/>
        <pt x="45" y="321" on="1"/>
      </contour>
    </TTGlyph>
    <TTGlyph name="i" xMin="64" yMin="0" xMax="152" yMax="728">
      <contour>
        <pt x="152" y="728" on="1"/>
        <pt x="152" y="628" on="1"/>
        <pt x="64" y="628" on="1"/>
        <pt x="64" y="728" on="1"/>
      </contour>
      <contour>
        <pt x="152" y="523" on="1"/>
        <pt x="152" y="0" on="1"/>
        <pt x="64" y="0" on="1"/>
        <pt x="64" y="523" on="1"/>
      </contour>
    </TTGlyph>
    <TTGlyph name="j" xMin="-18" yMin="-223" xMax="152" yMax="728">
      <contour>
        <pt x="152" y="728" on="1"/>
        <pt x="152" y="628" on="1"/>
        <pt x="64" y="628" on="1"/>
        <pt x="64" y="728" on="1"/>
      </contour>
      <contour>
        <pt x="152" y="523" on="1"/>
        <pt x="152" y="-89" on="1"/>
        <pt x="152" y="-157" on="0"/>
        <pt x="82" y="-223" on="0"/>
        <pt x="28" y="-223" on="1"/>
        <pt x="17" y="-223" on="0"/>
        <pt x="-10" y="-219" on="0"/>
        <pt x="-18" y="-212" on="1"/>
        <pt x="-18" y="-137" on="1"/>
        <pt x="-11" y="-139" on="0"/>
        <pt x="7" y="-145" on="0"/>
        <pt x="16" y="-145" on="1"/>
        <pt x="42" y="-145" on="0"/>
        <pt x="64" y="-105" on="0"/>
        <pt x="64" y="-76" on="1"/>
        <pt x="64" y="523" on="1"/>
      </contour>
    </TTGlyph>
    <TTGlyph name="k" xMin="64" yMin="0" xMax="494" yMax="728">
      <contour>
        <pt x="151" y="728" on="1"/>
        <pt x="151" y="288" on="1"/>
        <pt x="152" y="288" on="1"/>
        <pt x="384" y="523" on="1"/>
        <pt x="493" y="523" on="1"/>
        <pt x="300" y="328" on="1"/>
        <pt x="494" y="0" on="1"/>
        <pt x="382" y="0" on="1"/>
        <pt x="243" y="270" on="1"/>
        <pt x="151" y="183" on="1"/>
        <pt x="151" y="0" on="1"/>
        <pt x="64" y="0" on="1"/>
        <pt x="64" y="728" on="1"/>
      </contour>
    </TTGlyph>
    <TTGlyph name="l" xMin="64" yMin="0" xMax="152" yMax="728">
      <contour>
        <pt x="152" y="728" on="1"/>
        <pt x="152" y="0" on="1"/>
        <pt x="64" y="0" on="1"/>
        <pt x="64" y="728" on="1"/>
      </contour>
    </TTGlyph>
    <TTGlyph name="less" xMin="55" yMin="49" xMax="543" yMax="533">
      <contour>
        <pt x="55" y="321" on="1"/>
        <pt x="543" y="533" on="1"/>
        <pt x="543" y="455" on="1"/>
        <pt x="141" y="292" on="1"/>
        <pt x="141" y="290" on="1"/>
        <pt x="543" y="127" on="1"/>
        <pt x="543" y="49" on="1"/>
        <pt x="55" y="261" on="1"/>
      </contour>
    </TTGlyph>
    <TTGlyph name="m" xMin="64" yMin="0" xMax="776" yMax="534">
      <contour>
        <pt x="64" y="523" on="1"/>
        <pt x="152" y="523" on="1"/>
        <pt x="152" y="453" on="1"/>
        <pt x="155" y="453" on="1"/>
        <pt x="181" y="492" on="0"/>
        <pt x="262" y="533" on="0"/>
        <pt x="306" y="533" on="1"/>
        <pt x="348" y="533" on="0"/>
        <pt x="423" y="493" on="0"/>
        <pt x="447" y="453" on="1"/>
        <pt x="474" y="493" on="0"/>
        <pt x="563" y="534" on="0"/>
        <pt x="608" y="534" on="1"/>
        <pt x="644" y="534" on="0"/>
        <pt x="706" y="514" on="0"/>
        <pt x="751" y="477" on="0"/>
        <pt x="776" y="425" on="0"/>
        <pt x="776" y="394" on="1"/>
        <pt x="776" y="0" on="1"/>
        <pt x="688" y="0" on="1"/>
        <pt x="688" y="365" on="1"/>
        <pt x="688" y="389" on="0"/>
        <pt x="670" y="424" on="0"/>
        <pt x="643" y="445" on="0"/>
        <pt x="611" y="455" on="0"/>
        <pt x="596" y="455" on="1"/>
        <pt x="573" y="455" on="0"/>
        <pt x="527" y="435" on="0"/>
        <pt x="488" y="402" on="0"/>
        <pt x="464" y="360" on="0"/>
        <pt x="464" y="339" on="1"/>
        <pt x="464" y="0" on="1"/>
        <pt x="376" y="0" on="1"/>
        <pt x="376" y="365" on="1"/>
        <pt x="376" y="389" on="0"/>
        <pt x="358" y="424" on="0"/>
        <pt x="331" y="445" on="0"/>
        <pt x="299" y="455" on="0"/>
        <pt x="284" y="455" on="1"/>
        <pt x="261" y="455" on="0"/>
        <pt x="215" y="435" on="0"/>
        <pt x="176" y="402" on="0"/>
        <pt x="152" y="360" on="0"/>
        <pt x="152" y="339" on="1"/>
        <pt x="152" y="0" on="1"/>
        <pt x="64" y="0" on="1"/>
      </contour>
    </TTGlyph>
    <TTGlyph name="n" xMin="64" yMin="0" xMax="487" yMax="533">
      <contour>
        <pt x="64" y="523" on="1"/>
        <pt x="152" y="523" on="1"/>
        <pt x="152" y="453" on="1"/>
        <pt x="154" y="453" on="1"/>
        <pt x="180" y="494" on="0"/>
        <pt x="269" y="533" on="0"/>
        <pt x="316" y="533" on="1"/>
        <pt x="353" y="533" on="0"/>
        <pt x="416" y="512" on="0"/>
        <pt x="462" y="475" on="0"/>
        <pt x="487" y="422" on="0"/>
        <pt x="487" y="391" on="1"/>
        <pt x="487" y="0" on="1"/>
        <pt x="399" y="0" on="1"/>
        <pt x="399" y="360" on="1"/>
        <pt x="399" y="381" on="0"/>
        <pt x="381" y="415" on="0"/>
        <pt x="354" y="441" on="0"/>
        <pt x="322" y="455" on="0"/>
        <pt x="307" y="455" on="1"/>
        <pt x="282" y="455" on="0"/>
        <pt x="232" y="436" on="0"/>
        <pt x="189" y="405" on="0"/>
        <pt x="158" y="362" on="0"/>
        <pt x="152" y="338" on="1"/>
        <pt x="152" y="0" on="1"/>
        <pt x="64" y="0" on="1"/>
      </contour>
    </TTGlyph>
    <TTGlyph name="nine" xMin="30" yMin="-10" xMax="521" yMax="708">
      <contour>
        <pt x="130" y="178" on="1"/>
        <pt x="137" y="149" on="0"/>
        <pt x="166" y="109" on="0"/>
        <pt x="204" y="82" on="0"/>
        <pt x="246" y="70" on="0"/>
        <pt x="267" y="70" on="1"/>
        <pt x="312" y="70" on="0"/>
        <pt x="372" y="110" on="0"/>
        <pt x="408" y="176" on="0"/>
        <pt x="424" y="262" on="0"/>
        <pt x="424" y="308" on="1"/>
        <pt x="390" y="262" on="0"/>
        <pt x="306" y="230" on="0"/>
        <pt x="267" y="230" on="1"/>
        <pt x="225" y="230" on="0"/>
        <pt x="141" y="263" on="0"/>
        <pt x="73" y="323" on="0"/>
        <pt x="30" y="407" on="0"/>
        <pt x="30" y="457" on="1"/>
        <pt x="30" y="508" on="0"/>
        <pt x="60" y="599" on="0"/>
        <pt x="120" y="668" on="0"/>
        <pt x="209" y="708" on="0"/>
        <pt x="267" y="708" on="1"/>
        <pt x="326" y="708" on="0"/>
        <pt x="420" y="665" on="0"/>
        <pt x="486" y="582" on="0"/>
        <pt x="521" y="461" on="0"/>
        <pt x="521" y="383" on="1"/>
        <pt x="521" y="317" on="0"/>
        <pt x="500" y="177" on="0"/>
        <pt x="444" y="63" on="0"/>
        <pt x="345" y="-10" on="0"/>
        <pt x="267" y="-10" on="1"/>
        <pt x="226" y="-10" on="0"/>
        <pt x="148" y="11" on="0"/>
        <pt x="85" y="56" on="0"/>
        <pt x="44" y="127" on="0"/>
        <pt x="40" y="178" on="1"/>
      </contour>
      <contour>
        <pt x="267" y="310" on="1"/>
        <pt x="297" y="310" on="0"/>
        <pt x="349" y="335" on="0"/>
        <pt x="388" y="378" on="0"/>
        <pt x="411" y="436" on="0"/>
        <pt x="411" y="469" on="1"/>
        <pt x="411" y="502" on="0"/>
        <pt x="388" y="560" on="0"/>
        <pt x="349" y="603" on="0"/>
        <pt x="297" y="628" on="0"/>
        <pt x="267" y="628" on="1"/>
        <pt x="238" y="628" on="0"/>
        <pt x="189" y="603" on="0"/>
        <pt x="151" y="560" on="0"/>
        <pt x="130" y="502" on="0"/>
        <pt x="130" y="469" on="1"/>
        <pt x="130" y="436" on="0"/>
        <pt x="151" y="378" on="0"/>
        <pt x="189" y="335" on="0"/>
        <pt x="238" y="310" on="0"/>
      </contour>
    </TTGlyph>
    <TTGlyph name="numbersign" xMin="40" yMin="0" xMax="696" yMax="728">
      <contour>
        <pt x="398" y="234" on="1"/>
        <pt x="266" y="234" on="1"/>
        <pt x="224" y="0" on="1"/>
        <pt x="146" y="0" on="1"/>
        <pt x="187" y="234" on="1"/>
        <pt x="40" y="234" on="1"/>
        <pt x="53" y="304" on="1"/>
        <pt x="200" y="304" on="1"/>
        <pt x="225" y="436" on="1"/>
        <pt x="78" y="436" on="1"/>
        <pt x="90" y="506" on="1"/>
        <pt x="237" y="506" on="1"/>
        <pt x="277" y="728" on="1"/>
        <pt x="355" y="728" on="1"/>
        <pt x="315" y="506" on="1"/>
        <pt x="447" y="506" on="1"/>
        <pt x="487" y="728" on="1"/>
        <pt x="566" y="728" on="1"/>
        <pt x="525" y="506" on="1"/>
        <pt x="696" y="506" on="1"/>
        <pt x="684" y="436" on="1"/>
        <pt x="514" y="436" on="1"/>
        <pt x="489" y="304" on="1"/>
        <pt x="659" y="304" on="1"/>
        <pt x="647" y="234" on="1"/>
        <pt x="477" y="234" on="1"/>
        <pt x="433" y="0" on="1"/>
        <pt x="355" y="0" on="1"/>
      </contour>
      <contour>
        <pt x="436" y="436" on="1"/>
        <pt x="303" y="436" on="1"/>
        <pt x="278" y="304" on="1"/>
        <pt x="411" y="304" on="1"/>
      </contour>
    </TTGlyph>
    <TTGlyph name="o" xMin="34" yMin="-10" xMax="521" yMax="533">
      <contour>
        <pt x="279" y="533" on="1"/>
        <pt x="336" y="533" on="0"/>
        <pt x="426" y="489" on="0"/>
        <pt x="488" y="415" on="0"/>
        <pt x="521" y="315" on="0"/>
        <pt x="521" y="260" on="1"/>
        <pt x="521" y="204" on="0"/>
        <pt x="488" y="105" on="0"/>
        <pt x="426" y="32" on="0"/>
        <pt x="335" y="-10" on="0"/>
        <pt x="278" y="-10" on="1"/>
        <pt x="219" y="-10" on="0"/>
        <pt x="129" y="32" on="0"/>
        <pt x="66" y="105" on="0"/>
        <pt x="34" y="204" on="0"/>
        <pt x="34" y="260" on="1"/>
        <pt x="34" y="315" on="0"/>
        <pt x="67" y="415" on="0"/>
        <pt x="129" y="489" on="0"/>
        <pt x="220" y="533" on="0"/>
      </contour>
      <contour>
        <pt x="279" y="455" on="1"/>
        <pt x="243" y="455" on="0"/>
        <pt x="186" y="427" on="0"/>
        <pt x="147" y="375" on="0"/>
        <pt x="126" y="303" on="0"/>
        <pt x="126" y="260" on="1"/>
        <pt x="126" y="171" on="0"/>
        <pt x="203" y="68" on="0"/>
        <pt x="278" y="68" on="1"/>
        <pt x="353" y="68" on="0"/>
        <pt x="429" y="171" on="0"/>
        <pt x="429" y="260" on="1"/>
        <pt x="429" y="302" on="0"/>
        <pt x="408" y="373" on="0"/>
        <pt x="369" y="425" on="0"/>
        <pt x="313" y="455" on="0"/>
      </contour>
    </TTGlyph>
    <TTGlyph name="one" xMin="112" yMin="0" xMax="364" yMax="708">
      <contour>
        <pt x="274" y="505" on="1"/>
        <pt x="112" y="505" on="1"/>
        <pt x="112" y="575" on="1"/>
        <pt x="163" y="575" on="1"/>
        <pt x="190" y="575" on="0"/>
        <pt x="238" y="594" on="0"/>
        <pt x="273" y="629" on="0"/>
        <pt x="293" y="678" on="0"/>
        <pt x="293" y="708" on="1"/>
        <pt x="364" y="708" on="1"/>
        <pt x="364" y="0" on="1"/>
        <pt x="274" y="0" on="1"/>
      </contour>
    </TTGlyph>
    <TTGlyph name="p" xMin="64" yMin="-212" xMax="522" yMax="534">
      <contour>
        <pt x="64" y="523" on="1"/>
        <pt x="152" y="523" on="1"/>
        <pt x="152" y="450" on="1"/>
        <pt x="153" y="450" on="1"/>
        <pt x="178" y="494" on="0"/>
        <pt x="261" y="534" on="0"/>
        <pt x="315" y="534" on="1"/>
        <pt x="364" y="534" on="0"/>
        <pt x="442" y="494" on="0"/>
        <pt x="494" y="422" on="0"/>
        <pt x="522" y="324" on="0"/>
        <pt x="522" y="266" on="1"/>
        <pt x="522" y="203" on="0"/>
        <pt x="492" y="101" on="0"/>
        <pt x="435" y="29" on="0"/>
        <pt x="352" y="-10" on="0"/>
        <pt x="298" y="-10" on="1"/>
        <pt x="270" y="-10" on="0"/>
        <pt x="229" y="3" on="0"/>
        <pt x="196" y="24" on="0"/>
        <pt x="168" y="53" on="0"/>
        <pt x="154" y="69" on="1"/>
        <pt x="152" y="69" on="1"/>
        <pt x="152" y="-212" on="1"/>
        <pt x="64" y="-212" on="1"/>
      </contour>
      <contour>
        <pt x="298" y="455" on="1"/>
        <pt x="260" y="455" on="0"/>
        <pt x="205" y="422" on="0"/>
        <pt x="169" y="368" on="0"/>
        <pt x="152" y="300" on="0"/>
        <pt x="152" y="266" on="1"/>
        <pt x="152" y="227" on="0"/>
        <pt x="165" y="155" on="0"/>
        <pt x="198" y="100" on="0"/>
        <pt x="254" y="66" on="0"/>
        <pt x="298" y="66" on="1"/>
        <pt x="338" y="66" on="0"/>
        <pt x="389" y="101" on="0"/>
        <pt x="419" y="157" on="0"/>
        <pt x="430" y="229" on="0"/>
        <pt x="430" y="266" on="1"/>
        <pt x="430" y="302" on="0"/>
        <pt x="419" y="370" on="0"/>
        <pt x="389" y="423" on="0"/>
        <pt x="338" y="455" on="0"/>
      </contour>
    </TTGlyph>
    <TTGlyph name="parenleft" xMin="70" yMin="-141" xMax="290" yMax="828">
      <contour>
        <pt x="290" y="828" on="1"/>
        <pt x="226" y="713" on="0"/>
        <pt x="163" y="469" on="0"/>
        <pt x="163" y="343" on="1"/>
        <pt x="163" y="217" on="0"/>
        <pt x="226" y="-28" on="0"/>
        <pt x="290" y="-141" on="1"/>
        <pt x="232" y="-141" on="1"/>
        <pt x="151" y="-39" on="0"/>
        <pt x="70" y="211" on="0"/>
        <pt x="70" y="343" on="1"/>
        <pt x="70" y="474" on="0"/>
        <pt x="151" y="724" on="0"/>
        <pt x="232" y="828" on="1"/>
      </contour>
    </TTGlyph>
    <TTGlyph name="parenright" xMin="38" yMin="-141" xMax="258" yMax="828">
      <contour>
        <pt x="96" y="828" on="1"/>
        <pt x="177" y="724" on="0"/>
        <pt x="258" y="474" on="0"/>
        <pt x="258" y="343" on="1"/>
        <pt x="258" y="211" on="0"/>
        <pt x="177" y="-39" on="0"/>
        <pt x="96" y="-141" on="1"/>
        <pt x="38" y="-141" on="1"/>
        <pt x="102" y="-28" on="0"/>
        <pt x="165" y="217" on="0"/>
        <pt x="165" y="343" on="1"/>
        <pt x="165" y="469" on="0"/>
        <pt x="102" y="713" on="0"/>
        <pt x="38" y="828" on="1"/>
      </contour>
    </TTGlyph>
    <TTGlyph name="percent" xMin="40" yMin="-10" xMax="806" yMax="708">
      <contour>
        <pt x="171" y="0" on="1"/>
        <pt x="600" y="698" on="1"/>
        <pt x="668" y="698" on="1"/>
        <pt x="239" y="0" on="1"/>
      </contour>
      <contour>
        <pt x="211" y="358" on="1"/>
        <pt x="176" y="358" on="0"/>
        <pt x="113" y="385" on="0"/>
        <pt x="67" y="433" on="0"/>
        <pt x="40" y="497" on="0"/>
        <pt x="40" y="533" on="1"/>
        <pt x="40" y="570" on="0"/>
        <pt x="67" y="634" on="0"/>
        <pt x="113" y="681" on="0"/>
        <pt x="176" y="708" on="0"/>
        <pt x="211" y="708" on="1"/>
        <pt x="246" y="708" on="0"/>
        <pt x="308" y="681" on="0"/>
        <pt x="355" y="634" on="0"/>
        <pt x="382" y="570" on="0"/>
        <pt x="382" y="533" on="1"/>
        <pt x="382" y="497" on="0"/>
        <pt x="355" y="433" on="0"/>
        <pt x="308" y="385" on="0"/>
        <pt x="246" y="358" on="0"/>
      </contour>
      <contour>
        <pt x="211" y="426" on="1"/>
        <pt x="230" y="426" on="0"/>
        <pt x="266" y="443" on="0"/>
        <pt x="292" y="472" on="0"/>
        <pt x="308" y="511" on="0"/>
        <pt x="308" y="533" on="1"/>
        <pt x="308" y="555" on="0"/>
        <pt x="292" y="594" on="0"/>
        <pt x="266" y="623" on="0"/>
        <pt x="230" y="640" on="0"/>
        <pt x="211" y="640" on="1"/>
        <pt x="191" y="640" on="0"/>
        <pt x="156" y="623" on="0"/>
        <pt x="129" y="594" on="0"/>
        <pt x="114" y="555" on="0"/>
        <pt x="114" y="533" on="1"/>
        <pt x="114" y="511" on="0"/>
        <pt x="129" y="472" on="0"/>
        <pt x="156" y="443" on="0"/>
        <pt x="191" y="426" on="0"/>
      </contour>
      <contour>
        <pt x="635" y="-10" on="1"/>
        <pt x="600" y="-10" on="0"/>
        <pt x="537" y="17" on="0"/>
        <pt x="491" y="65" on="0"/>
        <pt x="464" y="129" on="0"/>
        <pt x="464" y="165" on="1"/>
        <pt x="464" y="202" on="0"/>
        <pt x="491" y="266" on="0"/>
        <pt x="537" y="313" on="0"/>
        <pt x="600" y="340" on="0"/>
        <pt x="635" y="340" on="1"/>
        <pt x="670" y="340" on="0"/>
        <pt x="732" y="313" on="0"/>
        <pt x="779" y="266" on="0"/>
        <pt x="806" y="202" on="0"/>
        <pt x="806" y="165" on="1"/>
        <pt x="806" y="129" on="0"/>
        <pt x="779" y="65" on="0"/>
        <pt x="732" y="17" on="0"/>
        <pt x="670" y="-10" on="0"/>
      </contour>
      <contour>
        <pt x="635" y="58" on="1"/>
        <pt x="654" y="58" on="0"/>
        <pt x="690" y="75" on="0"/>
        <pt x="716" y="104" on="0"/>
        <pt x="732" y="143" on="0"/>
        <pt x="732" y="165" on="1"/>
        <pt x="732" y="187" on="0"/>
        <pt x="716" y="226" on="0"/>
        <pt x="690" y="255" on="0"/>
        <pt x="654" y="272" on="0"/>
        <pt x="635" y="272" on="1"/>
        <pt x="615" y="272" on="0"/>
        <pt x="580" y="255" on="0"/>
        <pt x="553" y="226" on="0"/>
        <pt x="538" y="187" on="0"/>
        <pt x="538" y="165" on="1"/>
        <pt x="538" y="143" on="0"/>
        <pt x="553" y="104" on="0"/>
        <pt x="580" y="75" on="0"/>
        <pt x="615" y="58" on="0"/>
      </contour>
    </TTGlyph>
    <TTGlyph name="period" xMin="88" yMin="0" xMax="186" yMax="110">
      <contour>
        <pt x="186" y="110" on="1"/>
        <pt x="186" y="0" on="1"/>
        <pt x="88" y="0" on="1"/>
        <pt x="88" y="110" on="1"/>
      </contour>
    </TTGlyph>
    <TTGlyph name="perthousand" xMin="10" yMin="-10" xMax="1080" yMax="708">
      <contour>
        <pt x="111" y="0" on="1"/>
        <pt x="518" y="698" on="1"/>
        <pt x="587" y="698" on="1"/>
        <pt x="180" y="0" on="1"/>
      </contour>
      <contour>
        <pt x="181" y="358" on="1"/>
        <pt x="146" y="358" on="0"/>
        <pt x="83" y="385" on="0"/>
        <pt x="37" y="433" on="0"/>
        <pt x="10" y="497" on="0"/>
        <pt x="10" y="533" on="1"/>
        <pt x="10" y="570" on="0"/>
        <pt x="37" y="634" on="0"/>
        <pt x="83" y="681" on="0"/>
        <pt x="146" y="708" on="0"/>
        <pt x="181" y="708" on="1"/>
        <pt x="216" y="708" on="0"/>
        <pt x="278" y="681" on="0"/>
        <pt x="325" y="634" on="0"/>
        <pt x="352" y="570" on="0"/>
        <pt x="352" y="533" on="1"/>
        <pt x="352" y="497" on="0"/>
        <pt x="325" y="433" on="0"/>
        <pt x="278" y="385" on="0"/>
        <pt x="216" y="358" on="0"/>
      </contour>
      <contour>
        <pt x="181" y="426" on="1"/>
        <pt x="200" y="426" on="0"/>
        <pt x="236" y="443" on="0"/>
        <pt x="262" y="472" on="0"/>
        <pt x="278" y="511" on="0"/>
        <pt x="278" y="533" on="1"/>
        <pt x="278" y="555" on="0"/>
        <pt x="262" y="594" on="0"/>
        <pt x="236" y="623" on="0"/>
        <pt x="200" y="640" on="0"/>
        <pt x="181" y="640" on="1"/>
        <pt x="161" y="640" on="0"/>
        <pt x="126" y="623" on="0"/>
        <pt x="99" y="594" on="0"/>
        <pt x="84" y="555" on="0"/>
        <pt x="84" y="533" on="1"/>
        <pt x="84" y="511" on="0"/>
        <pt x="99" y="472" on="0"/>
        <pt x="126" y="443" on="0"/>
        <pt x="161" y="426" on="0"/>
      </contour>
      <contour>
        <pt x="521" y="-10" on="1"/>
        <pt x="486" y="-10" on="0"/>
        <pt x="423" y="17" on="0"/>
        <pt x="377" y="65" on="0"/>
        <pt x="350" y="129" on="0"/>
        <pt x="350" y="165" on="1"/>
        <pt x="350" y="202" on="0"/>
        <pt x="377" y="266" on="0"/>
        <pt x="423" y="313" on="0"/>
        <pt x="486" y="340" on="0"/>
        <pt x="521" y="340" on="1"/>
        <pt x="556" y="340" on="0"/>
        <pt x="618" y="313" on="0"/>
        <pt x="665" y="266" on="0"/>
        <pt x="692" y="202" on="0"/>
        <pt x="692" y="165" on="1"/>
        <pt x="692" y="129" on="0"/>
        <pt x="665" y="65" on="0"/>
        <pt x="618" y="17" on="0"/>
        <pt x="556" y="-10" on="0"/>
      </contour>
      <contour>
        <pt x="521" y="58" on="1"/>
        <pt x="540" y="58" on="0"/>
        <pt x="576" y="75" on="0"/>
        <pt x="602" y="104" on="0"/>
        <pt x="618" y="143" on="0"/>
        <pt x="618" y="165" on="1"/>
        <pt x="618" y="187" on="0"/>
        <pt x="602" y="226" on="0"/>
        <pt x="576" y="255" on="0"/>
        <pt x="540" y="272" on="0"/>
        <pt x="521" y="272" on="1"/>
        <pt x="501" y="272" on="0"/>
        <pt x="466" y="255" on="0"/>
        <pt x="439" y="226" on="0"/>
        <pt x="424" y="187" on="0"/>
        <pt x="424" y="165" on="1"/>
        <pt x="424" y="143" on="0"/>
        <pt x="439" y="104" on="0"/>
        <pt x="466" y="75" on="0"/>
        <pt x="501" y="58" on="0"/>
      </contour>
      <contour>
        <pt x="909" y="-10" on="1"/>
        <pt x="874" y="-10" on="0"/>
        <pt x="811" y="17" on="0"/>
        <pt x="765" y="65" on="0"/>
        <pt x="738" y="129" on="0"/>
        <pt x="738" y="165" on="1"/>
        <pt x="738" y="202" on="0"/>
        <pt x="765" y="266" on="0"/>
        <pt x="811" y="313" on="0"/>
        <pt x="874" y="340" on="0"/>
        <pt x="909" y="340" on="1"/>
        <pt x="944" y="340" on="0"/>
        <pt x="1006" y="313" on="0"/>
        <pt x="1053" y="266" on="0"/>
        <pt x="1080" y="202" on="0"/>
        <pt x="1080" y="165" on="1"/>
        <pt x="1080" y="129" on="0"/>
        <pt x="1053" y="65" on="0"/>
        <pt x="1006" y="17" on="0"/>
        <pt x="944" y="-10" on="0"/>
      </contour>
      <contour>
        <pt x="909" y="58" on="1"/>
        <pt x="928" y="58" on="0"/>
        <pt x="964" y="75" on="0"/>
        <pt x="990" y="104" on="0"/>
        <pt x="1006" y="143" on="0"/>
        <pt x="1006" y="165" on="1"/>
        <pt x="1006" y="187" on="0"/>
        <pt x="990" y="226" on="0"/>
        <pt x="964" y="255" on="0"/>
        <pt x="928" y="272" on="0"/>
        <pt x="909" y="272" on="1"/>
        <pt x="889" y="272" on="0"/>
        <pt x="854" y="255" on="0"/>
        <pt x="827" y="226" on="0"/>
        <pt x="812" y="187" on="0"/>
        <pt x="812" y="165" on="1"/>
        <pt x="812" y="143" on="0"/>
        <pt x="827" y="104" on="0"/>
        <pt x="854" y="75" on="0"/>
        <pt x="889" y="58" on="0"/>
      </contour>
    </TTGlyph>
    <TTGlyph name="plus" xMin="40" yMin="134" xMax="568" yMax="646">
      <contour>
        <pt x="40" y="424" on="1"/>
        <pt x="270" y="424" on="1"/>
        <pt x="270" y="646" on="1"/>
        <pt x="338" y="646" on="1"/>
        <pt x="338" y="424" on="1"/>
        <pt x="568" y="424" on="1"/>
        <pt x="568" y="356" on="1"/>
        <pt x="338" y="356" on="1"/>
        <pt x="338" y="134" on="1"/>
        <pt x="270" y="134" on="1"/>
        <pt x="270" y="356" on="1"/>
        <pt x="40" y="356" on="1"/>
      </contour>
    </TTGlyph>
    <TTGlyph name="q" xMin="34" yMin="-212" xMax="518" yMax="533">
      <contour>
        <pt x="430" y="69" on="1"/>
        <pt x="428" y="69" on="1"/>
        <pt x="414" y="53" on="0"/>
        <pt x="384" y="24" on="0"/>
        <pt x="348" y="3" on="0"/>
        <pt x="305" y="-10" on="0"/>
        <pt x="277" y="-10" on="1"/>
        <pt x="220" y="-10" on="0"/>
        <pt x="129" y="32" on="0"/>
        <pt x="67" y="105" on="0"/>
        <pt x="34" y="206" on="0"/>
        <pt x="34" y="266" on="1"/>
        <pt x="34" y="391" on="0"/>
        <pt x="162" y="533" on="0"/>
        <pt x="277" y="533" on="1"/>
        <pt x="330" y="533" on="0"/>
        <pt x="401" y="481" on="0"/>
        <pt x="428" y="443" on="1"/>
        <pt x="430" y="443" on="1"/>
        <pt x="430" y="523" on="1"/>
        <pt x="518" y="523" on="1"/>
        <pt x="518" y="-212" on="1"/>
        <pt x="430" y="-212" on="1"/>
      </contour>
      <contour>
        <pt x="277" y="66" on="1"/>
        <pt x="321" y="66" on="0"/>
        <pt x="380" y="100" on="0"/>
        <pt x="415" y="155" on="0"/>
        <pt x="430" y="227" on="0"/>
        <pt x="430" y="266" on="1"/>
        <pt x="430" y="300" on="0"/>
        <pt x="411" y="368" on="0"/>
        <pt x="373" y="422" on="0"/>
        <pt x="315" y="455" on="0"/>
        <pt x="277" y="455" on="1"/>
        <pt x="235" y="455" on="0"/>
        <pt x="177" y="423" on="0"/>
        <pt x="142" y="370" on="0"/>
        <pt x="126" y="302" on="0"/>
        <pt x="126" y="266" on="1"/>
        <pt x="126" y="229" on="0"/>
        <pt x="143" y="157" on="0"/>
        <pt x="180" y="101" on="0"/>
        <pt x="237" y="66" on="0"/>
      </contour>
    </TTGlyph>
    <TTGlyph name="question" xMin="54" yMin="0" xMax="486" yMax="748">
      <contour>
        <pt x="222" y="203" on="1"/>
        <pt x="222" y="262" on="1"/>
        <pt x="222" y="292" on="0"/>
        <pt x="246" y="342" on="0"/>
        <pt x="282" y="387" on="0"/>
        <pt x="325" y="429" on="0"/>
        <pt x="361" y="473" on="0"/>
        <pt x="386" y="522" on="0"/>
        <pt x="386" y="551" on="1"/>
        <pt x="386" y="605" on="0"/>
        <pt x="329" y="668" on="0"/>
        <pt x="271" y="668" on="1"/>
        <pt x="242" y="668" on="0"/>
        <pt x="195" y="644" on="0"/>
        <pt x="161" y="600" on="0"/>
        <pt x="143" y="541" on="0"/>
        <pt x="143" y="505" on="1"/>
        <pt x="54" y="505" on="1"/>
        <pt x="54" y="559" on="0"/>
        <pt x="86" y="648" on="0"/>
        <pt x="143" y="712" on="0"/>
        <pt x="223" y="748" on="0"/>
        <pt x="271" y="748" on="1"/>
        <pt x="328" y="748" on="0"/>
        <pt x="409" y="712" on="0"/>
        <pt x="462" y="655" on="0"/>
        <pt x="486" y="583" on="0"/>
        <pt x="486" y="548" on="1"/>
        <pt x="486" y="508" on="0"/>
        <pt x="460" y="450" on="0"/>
        <pt x="420" y="403" on="0"/>
        <pt x="375" y="362" on="0"/>
        <pt x="335" y="317" on="0"/>
        <pt x="309" y="263" on="0"/>
        <pt x="309" y="227" on="1"/>
        <pt x="309" y="203" on="1"/>
      </contour>
      <contour>
        <pt x="315" y="110" on="1"/>
        <pt x="315" y="0" on="1"/>
        <pt x="217" y="0" on="1"/>
        <pt x="217" y="110" on="1"/>
      </contour>
    </TTGlyph>
    <TTGlyph name="quilsinglleft" xMin="60" yMin="82" xMax="226" yMax="404">
      <contour>
        <pt x="60" y="223" on="1"/>
        <pt x="60" y="263" on="1"/>
        <pt x="226" y="404" on="1"/>
        <pt x="226" y="334" on="1"/>
        <pt x="119" y="242" on="1"/>
        <pt x="226" y="152" on="1"/>
        <pt x="226" y="82" on="1"/>
      </contour>
    </TTGlyph>
    <TTGlyph name="quilsinglright" xMin="60" yMin="82" xMax="226" yMax="404">
      <contour>
        <pt x="60" y="152" on="1"/>
        <pt x="167" y="242" on="1"/>
        <pt x="60" y="334" on="1"/>
        <pt x="60" y="404" on="1"/>
        <pt x="226" y="263" on="1"/>
        <pt x="226" y="223" on="1"/>
        <pt x="60" y="82" on="1"/>
      </contour>
    </TTGlyph>
    <TTGlyph name="quotedbl" xMin="70" yMin="454" xMax="290" yMax="728">
      <contour>
        <pt x="140" y="728" on="1"/>
        <pt x="140" y="454" on="1"/>
        <pt x="70" y="454" on="1"/>
        <pt x="70" y="728" on="1"/>
      </contour>
      <contour>
        <pt x="290" y="728" on="1"/>
        <pt x="290" y="454" on="1"/>
        <pt x="220" y="454" on="1"/>
        <pt x="220" y="728" on="1"/>
      </contour>
    </TTGlyph>
    <TTGlyph name="quotedblbase" xMin="40" yMin="-150" xMax="300" yMax="110">
      <contour>
        <pt x="138" y="110" on="1"/>
        <pt x="138" y="-20" on="1"/>
        <pt x="138" y="-72" on="0"/>
        <pt x="85" y="-140" on="0"/>
        <pt x="40" y="-150" on="1"/>
        <pt x="40" y="-102" on="1"/>
        <pt x="70" y="-92" on="0"/>
        <pt x="88" y="-52" on="0"/>
        <pt x="88" y="-20" on="1"/>
        <pt x="88" y="0" on="1"/>
        <pt x="40" y="0" on="1"/>
        <pt x="40" y="110" on="1"/>
      </contour>
      <contour>
        <pt x="300" y="110" on="1"/>
        <pt x="300" y="-20" on="1"/>
        <pt x="300" y="-72" on="0"/>
        <pt x="247" y="-140" on="0"/>
        <pt x="202" y="-150" on="1"/>
        <pt x="202" y="-102" on="1"/>
        <pt x="232" y="-92" on="0"/>
        <pt x="250" y="-52" on="0"/>
        <pt x="250" y="-20" on="1"/>
        <pt x="250" y="0" on="1"/>
        <pt x="202" y="0" on="1"/>
        <pt x="202" y="110" on="1"/>
      </contour>
    </TTGlyph>
    <TTGlyph name="quotedblleft" xMin="40" yMin="489" xMax="300" yMax="749">
      <contour>
        <pt x="202" y="489" on="1"/>
        <pt x="202" y="619" on="1"/>
        <pt x="202" y="671" on="0"/>
        <pt x="255" y="739" on="0"/>
        <pt x="300" y="749" on="1"/>
        <pt x="300" y="701" on="1"/>
        <pt x="270" y="691" on="0"/>
        <pt x="252" y="651" on="0"/>
        <pt x="252" y="619" on="1"/>
        <pt x="252" y="599" on="1"/>
        <pt x="300" y="599" on="1"/>
        <pt x="300" y="489" on="1"/>
      </contour>
      <contour>
        <pt x="40" y="489" on="1"/>
        <pt x="40" y="619" on="1"/>
        <pt x="40" y="671" on="0"/>
        <pt x="93" y="739" on="0"/>
        <pt x="138" y="749" on="1"/>
        <pt x="138" y="701" on="1"/>
        <pt x="108" y="691" on="0"/>
        <pt x="90" y="651" on="0"/>
        <pt x="90" y="619" on="1"/>
        <pt x="90" y="599" on="1"/>
        <pt x="138" y="599" on="1"/>
        <pt x="138" y="489" on="1"/>
      </contour>
    </TTGlyph>
    <TTGlyph name="quotedblright" xMin="40" yMin="468" xMax="300" yMax="728">
      <contour>
        <pt x="138" y="728" on="1"/>
        <pt x="138" y="598" on="1"/>
        <pt x="138" y="546" on="0"/>
        <pt x="85" y="478" on="0"/>
        <pt x="40" y="468" on="1"/>
        <pt x="40" y="516" on="1"/>
        <pt x="70" y="526" on="0"/>
        <pt x="88" y="566" on="0"/>
        <pt x="88" y="598" on="1"/>
        <pt x="88" y="618" on="1"/>
        <pt x="40" y="618" on="1"/>
        <pt x="40" y="728" on="1"/>
      </contour>
      <contour>
        <pt x="300" y="728" on="1"/>
        <pt x="300" y="598" on="1"/>
        <pt x="300" y="546" on="0"/>
        <pt x="247" y="478" on="0"/>
        <pt x="202" y="468" on="1"/>
        <pt x="202" y="516" on="1"/>
        <pt x="232" y="526" on="0"/>
        <pt x="250" y="566" on="0"/>
        <pt x="250" y="598" on="1"/>
        <pt x="250" y="618" on="1"/>
        <pt x="202" y="618" on="1"/>
        <pt x="202" y="728" on="1"/>
      </contour>
    </TTGlyph>
    <TTGlyph name="quoteleft" xMin="40" yMin="468" xMax="138" yMax="728">
      <contour>
        <pt x="40" y="468" on="1"/>
        <pt x="40" y="598" on="1"/>
        <pt x="40" y="650" on="0"/>
        <pt x="93" y="718" on="0"/>
        <pt x="138" y="728" on="1"/>
        <pt x="138" y="680" on="1"/>
        <pt x="108" y="670" on="0"/>
        <pt x="90" y="630" on="0"/>
        <pt x="90" y="598" on="1"/>
        <pt x="90" y="578" on="1"/>
        <pt x="138" y="578" on="1"/>
        <pt x="138" y="468" on="1"/>
      </contour>
    </TTGlyph>
    <TTGlyph name="quoteright" xMin="40" yMin="468" xMax="138" yMax="728">
      <contour>
        <pt x="138" y="728" on="1"/>
        <pt x="138" y="598" on="1"/>
        <pt x="138" y="546" on="0"/>
        <pt x="85" y="478" on="0"/>
        <pt x="40" y="468" on="1"/>
        <pt x="40" y="516" on="1"/>
        <pt x="70" y="526" on="0"/>
        <pt x="88" y="566" on="0"/>
        <pt x="88" y="598" on="1"/>
        <pt x="88" y="618" on="1"/>
        <pt x="40" y="618" on="1"/>
        <pt x="40" y="728" on="1"/>
      </contour>
    </TTGlyph>
    <TTGlyph name="quotesinglbase" xMin="40" yMin="-150" xMax="138" yMax="110">
      <contour>
        <pt x="138" y="110" on="1"/>
        <pt x="138" y="-20" on="1"/>
        <pt x="138" y="-72" on="0"/>
        <pt x="85" y="-140" on="0"/>
        <pt x="40" y="-150" on="1"/>
        <pt x="40" y="-102" on="1"/>
        <pt x="70" y="-92" on="0"/>
        <pt x="88" y="-52" on="0"/>
        <pt x="88" y="-20" on="1"/>
        <pt x="88" y="0" on="1"/>
        <pt x="40" y="0" on="1"/>
        <pt x="40" y="110" on="1"/>
      </contour>
    </TTGlyph>
    <TTGlyph name="quotesingle" xMin="60" yMin="454" xMax="130" yMax="728">
      <contour>
        <pt x="130" y="728" on="1"/>
        <pt x="130" y="454" on="1"/>
        <pt x="60" y="454" on="1"/>
        <pt x="60" y="728" on="1"/>
      </contour>
    </TTGlyph>
    <TTGlyph name="r" xMin="64" yMin="0" xMax="316" yMax="533">
      <contour>
        <pt x="64" y="523" on="1"/>
        <pt x="152" y="523" on="1"/>
        <pt x="152" y="454" on="1"/>
        <pt x="155" y="454" on="1"/>
        <pt x="175" y="492" on="0"/>
        <pt x="228" y="533" on="0"/>
        <pt x="275" y="533" on="1"/>
        <pt x="297" y="533" on="0"/>
        <pt x="316" y="523" on="1"/>
        <pt x="316" y="437" on="1"/>
        <pt x="301" y="441" on="0"/>
        <pt x="285" y="443" on="0"/>
        <pt x="276" y="443" on="1"/>
        <pt x="218" y="443" on="0"/>
        <pt x="152" y="378" on="0"/>
        <pt x="152" y="326" on="1"/>
        <pt x="152" y="0" on="1"/>
        <pt x="64" y="0" on="1"/>
      </contour>
    </TTGlyph>
    <TTGlyph name="s" xMin="40" yMin="-10" xMax="452" yMax="533">
      <contour>
        <pt x="128" y="169" on="1"/>
        <pt x="128" y="115" on="0"/>
        <pt x="192" y="66" on="0"/>
        <pt x="241" y="66" on="1"/>
        <pt x="261" y="66" on="0"/>
        <pt x="305" y="73" on="0"/>
        <pt x="341" y="91" on="0"/>
        <pt x="364" y="122" on="0"/>
        <pt x="364" y="146" on="1"/>
        <pt x="364" y="164" on="0"/>
        <pt x="343" y="193" on="0"/>
        <pt x="306" y="216" on="0"/>
        <pt x="258" y="234" on="0"/>
        <pt x="231" y="240" on="1"/>
        <pt x="195" y="249" on="0"/>
        <pt x="131" y="272" on="0"/>
        <pt x="84" y="308" on="0"/>
        <pt x="57" y="358" on="0"/>
        <pt x="57" y="393" on="1"/>
        <pt x="57" y="433" on="0"/>
        <pt x="88" y="486" on="0"/>
        <pt x="139" y="519" on="0"/>
        <pt x="206" y="533" on="0"/>
        <pt x="241" y="533" on="1"/>
        <pt x="283" y="533" on="0"/>
        <pt x="355" y="514" on="0"/>
        <pt x="407" y="477" on="0"/>
        <pt x="436" y="420" on="0"/>
        <pt x="436" y="381" on="1"/>
        <pt x="348" y="382" on="1"/>
        <pt x="348" y="404" on="0"/>
        <pt x="331" y="432" on="0"/>
        <pt x="303" y="449" on="0"/>
        <pt x="263" y="455" on="0"/>
        <pt x="241" y="455" on="1"/>
        <pt x="194" y="455" on="0"/>
        <pt x="145" y="421" on="0"/>
        <pt x="145" y="394" on="1"/>
        <pt x="145" y="374" on="0"/>
        <pt x="168" y="347" on="0"/>
        <pt x="205" y="329" on="0"/>
        <pt x="253" y="315" on="0"/>
        <pt x="279" y="307" on="1"/>
        <pt x="312" y="297" on="0"/>
        <pt x="374" y="275" on="0"/>
        <pt x="422" y="241" on="0"/>
        <pt x="452" y="192" on="0"/>
        <pt x="452" y="155" on="1"/>
        <pt x="452" y="110" on="0"/>
        <pt x="418" y="48" on="0"/>
        <pt x="360" y="8" on="0"/>
        <pt x="283" y="-10" on="0"/>
        <pt x="241" y="-10" on="1"/>
        <pt x="200" y="-10" on="0"/>
        <pt x="127" y="12" on="0"/>
        <pt x="72" y="57" on="0"/>
        <pt x="40" y="124" on="0"/>
        <pt x="40" y="169" on="1"/>
      </contour>
    </TTGlyph>
    <TTGlyph name="semicolon" xMin="78" yMin="-150" xMax="176" yMax="523">
      <contour>
        <pt x="176" y="523" on="1"/>
        <pt x="176" y="413" on="1"/>
        <pt x="78" y="413" on="1"/>
        <pt x="78" y="523" on="1"/>
      </contour>
      <contour>
        <pt x="176" y="110" on="1"/>
        <pt x="176" y="-20" on="1"/>
        <pt x="176" y="-72" on="0"/>
        <pt x="123" y="-140" on="0"/>
        <pt x="78" y="-150" on="1"/>
        <pt x="78" y="-102" on="1"/>
        <pt x="108" y="-92" on="0"/>
        <pt x="126" y="-52" on="0"/>
        <pt x="126" y="-20" on="1"/>
        <pt x="126" y="0" on="1"/>
        <pt x="78" y="0" on="1"/>
        <pt x="78" y="110" on="1"/>
      </contour>
    </TTGlyph>
    <TTGlyph name="seven" xMin="36" yMin="0" xMax="521" yMax="698">
      <contour>
        <pt x="140" y="0" on="1"/>
        <pt x="163" y="176" on="0"/>
        <pt x="308" y="479" on="0"/>
        <pt x="427" y="616" on="1"/>
        <pt x="427" y="618" on="1"/>
        <pt x="36" y="618" on="1"/>
        <pt x="36" y="698" on="1"/>
        <pt x="521" y="698" on="1"/>
        <pt x="521" y="618" on="1"/>
        <pt x="462" y="547" on="0"/>
        <pt x="365" y="390" on="0"/>
        <pt x="292" y="230" on="0"/>
        <pt x="246" y="72" on="0"/>
        <pt x="239" y="0" on="1"/>
      </contour>
    </TTGlyph>
    <TTGlyph name="six" xMin="38" yMin="-10" xMax="518" yMax="708">
      <contour>
        <pt x="418" y="523" on="1"/>
        <pt x="417" y="541" on="0"/>
        <pt x="398" y="578" on="0"/>
        <pt x="365" y="609" on="0"/>
        <pt x="320" y="628" on="0"/>
        <pt x="294" y="628" on="1"/>
        <pt x="249" y="628" on="0"/>
        <pt x="191" y="585" on="0"/>
        <pt x="158" y="517" on="0"/>
        <pt x="145" y="433" on="0"/>
        <pt x="143" y="392" on="1"/>
        <pt x="147" y="392" on="1"/>
        <pt x="211" y="454" on="0"/>
        <pt x="287" y="454" on="1"/>
        <pt x="335" y="454" on="0"/>
        <pt x="420" y="419" on="0"/>
        <pt x="482" y="358" on="0"/>
        <pt x="518" y="272" on="0"/>
        <pt x="518" y="221" on="1"/>
        <pt x="518" y="174" on="0"/>
        <pt x="486" y="90" on="0"/>
        <pt x="426" y="27" on="0"/>
        <pt x="341" y="-10" on="0"/>
        <pt x="288" y="-10" on="1"/>
        <pt x="231" y="-10" on="0"/>
        <pt x="139" y="34" on="0"/>
        <pt x="73" y="117" on="0"/>
        <pt x="38" y="236" on="0"/>
        <pt x="38" y="311" on="1"/>
        <pt x="38" y="419" on="0"/>
        <pt x="75" y="570" on="0"/>
        <pt x="141" y="665" on="0"/>
        <pt x="235" y="708" on="0"/>
        <pt x="292" y="708" on="1"/>
        <pt x="338" y="708" on="0"/>
        <pt x="416" y="676" on="0"/>
        <pt x="472" y="624" on="0"/>
        <pt x="505" y="558" on="0"/>
        <pt x="508" y="523" on="1"/>
      </contour>
      <contour>
        <pt x="287" y="70" on="1"/>
        <pt x="320" y="70" on="0"/>
        <pt x="369" y="93" on="0"/>
        <pt x="402" y="133" on="0"/>
        <pt x="418" y="187" on="0"/>
        <pt x="418" y="219" on="1"/>
        <pt x="418" y="249" on="0"/>
        <pt x="401" y="305" on="0"/>
        <pt x="368" y="348" on="0"/>
        <pt x="320" y="374" on="0"/>
        <pt x="288" y="374" on="1"/>
        <pt x="248" y="374" on="0"/>
        <pt x="194" y="345" on="0"/>
        <pt x="161" y="299" on="0"/>
        <pt x="147" y="244" on="0"/>
        <pt x="147" y="219" on="1"/>
        <pt x="147" y="153" on="0"/>
        <pt x="224" y="70" on="0"/>
      </contour>
    </TTGlyph>
    <TTGlyph name="slash" xMin="-16" yMin="-20" xMax="286" yMax="748">
      <contour>
        <pt x="45" y="-20" on="1"/>
        <pt x="-16" y="-20" on="1"/>
        <pt x="227" y="748" on="1"/>
        <pt x="286" y="748" on="1"/>
      </contour>
    </TTGlyph>
    <TTGlyph name="t" xMin="14" yMin="-10" xMax="273" yMax="676">
      <contour>
        <pt x="181" y="676" on="1"/>
        <pt x="181" y="523" on="1"/>
        <pt x="261" y="523" on="1"/>
        <pt x="261" y="447" on="1"/>
        <pt x="181" y="447" on="1"/>
        <pt x="181" y="132" on="1"/>
        <pt x="181" y="98" on="0"/>
        <pt x="215" y="68" on="0"/>
        <pt x="244" y="68" on="1"/>
        <pt x="250" y="68" on="0"/>
        <pt x="263" y="69" on="0"/>
        <pt x="273" y="74" on="1"/>
        <pt x="273" y="-1" on="1"/>
        <pt x="259" y="-5" on="0"/>
        <pt x="223" y="-10" on="0"/>
        <pt x="203" y="-10" on="1"/>
        <pt x="181" y="-10" on="0"/>
        <pt x="142" y="1" on="0"/>
        <pt x="112" y="26" on="0"/>
        <pt x="94" y="66" on="0"/>
        <pt x="94" y="95" on="1"/>
        <pt x="94" y="447" on="1"/>
        <pt x="14" y="447" on="1"/>
        <pt x="14" y="523" on="1"/>
        <pt x="94" y="523" on="1"/>
        <pt x="94" y="676" on="1"/>
      </contour>
    </TTGlyph>
    <TTGlyph name="three" xMin="24" yMin="-10" xMax="518" yMax="707">
      <contour>
        <pt x="46" y="491" on="1"/>
        <pt x="52" y="542" on="0"/>
        <pt x="83" y="622" on="0"/>
        <pt x="137" y="677" on="0"/>
        <pt x="218" y="707" on="0"/>
        <pt x="274" y="707" on="1"/>
        <pt x="322" y="707" on="0"/>
        <pt x="401" y="680" on="0"/>
        <pt x="457" y="632" on="0"/>
        <pt x="487" y="564" on="0"/>
        <pt x="487" y="523" on="1"/>
        <pt x="487" y="465" on="0"/>
        <pt x="438" y="394" on="0"/>
        <pt x="387" y="374" on="1"/>
        <pt x="412" y="366" on="0"/>
        <pt x="459" y="339" on="0"/>
        <pt x="496" y="296" on="0"/>
        <pt x="518" y="237" on="0"/>
        <pt x="518" y="197" on="1"/>
        <pt x="518" y="146" on="0"/>
        <pt x="479" y="69" on="0"/>
        <pt x="412" y="17" on="0"/>
        <pt x="323" y="-10" on="0"/>
        <pt x="274" y="-10" on="1"/>
        <pt x="173" y="-10" on="0"/>
        <pt x="41" y="107" on="0"/>
        <pt x="24" y="222" on="1"/>
        <pt x="125" y="222" on="1"/>
        <pt x="139" y="139" on="0"/>
        <pt x="211" y="70" on="0"/>
        <pt x="274" y="70" on="1"/>
        <pt x="302" y="70" on="0"/>
        <pt x="355" y="88" on="0"/>
        <pt x="394" y="121" on="0"/>
        <pt x="418" y="168" on="0"/>
        <pt x="418" y="197" on="1"/>
        <pt x="418" y="225" on="0"/>
        <pt x="398" y="274" on="0"/>
        <pt x="360" y="311" on="0"/>
        <pt x="307" y="332" on="0"/>
        <pt x="274" y="332" on="1"/>
        <pt x="218" y="332" on="1"/>
        <pt x="218" y="412" on="1"/>
        <pt x="274" y="412" on="1"/>
        <pt x="305" y="412" on="0"/>
        <pt x="349" y="430" on="0"/>
        <pt x="375" y="460" on="0"/>
        <pt x="387" y="498" on="0"/>
        <pt x="387" y="517" on="1"/>
        <pt x="387" y="568" on="0"/>
        <pt x="324" y="628" on="0"/>
        <pt x="272" y="628" on="1"/>
        <pt x="240" y="628" on="0"/>
        <pt x="195" y="606" on="0"/>
        <pt x="165" y="568" on="0"/>
        <pt x="148" y="518" on="0"/>
        <pt x="144" y="491" on="1"/>
      </contour>
    </TTGlyph>
    <TTGlyph name="trademark" xMin="40" yMin="319" xMax="836" yMax="728">
      <contour>
        <pt x="390" y="728" on="1"/>
        <pt x="390" y="678" on="1"/>
        <pt x="246" y="678" on="1"/>
        <pt x="246" y="319" on="1"/>
        <pt x="184" y="319" on="1"/>
        <pt x="184" y="678" on="1"/>
        <pt x="40" y="678" on="1"/>
        <pt x="40" y="728" on="1"/>
      </contour>
      <contour>
        <pt x="512" y="728" on="1"/>
        <pt x="625" y="381" on="1"/>
        <pt x="626" y="381" on="1"/>
        <pt x="748" y="728" on="1"/>
        <pt x="836" y="728" on="1"/>
        <pt x="836" y="319" on="1"/>
        <pt x="774" y="319" on="1"/>
        <pt x="774" y="655" on="1"/>
        <pt x="771" y="655" on="1"/>
        <pt x="653" y="319" on="1"/>
        <pt x="600" y="319" on="1"/>
        <pt x="481" y="655" on="1"/>
        <pt x="480" y="655" on="1"/>
        <pt x="480" y="319" on="1"/>
        <pt x="418" y="319" on="1"/>
        <pt x="418" y="728" on="1"/>
      </contour>
    </TTGlyph>
    <TTGlyph name="two" xMin="46" yMin="0" xMax="519" yMax="708">
      <contour>
        <pt x="46" y="481" on="1"/>
        <pt x="52" y="532" on="0"/>
        <pt x="89" y="615" on="0"/>
        <pt x="152" y="675" on="0"/>
        <pt x="239" y="708" on="0"/>
        <pt x="294" y="708" on="1"/>
        <pt x="348" y="708" on="0"/>
        <pt x="432" y="671" on="0"/>
        <pt x="489" y="611" on="0"/>
        <pt x="519" y="534" on="0"/>
        <pt x="519" y="493" on="1"/>
        <pt x="519" y="457" on="0"/>
        <pt x="500" y="402" on="0"/>
        <pt x="467" y="356" on="0"/>
        <pt x="422" y="319" on="0"/>
        <pt x="397" y="301" on="1"/>
        <pt x="348" y="267" on="0"/>
        <pt x="246" y="203" on="0"/>
        <pt x="199" y="162" on="1"/>
        <pt x="182" y="147" on="0"/>
        <pt x="160" y="113" on="0"/>
        <pt x="152" y="89" on="1"/>
        <pt x="499" y="89" on="1"/>
        <pt x="499" y="0" on="1"/>
        <pt x="53" y="0" on="1"/>
        <pt x="53" y="67" on="1"/>
        <pt x="53" y="109" on="0"/>
        <pt x="109" y="189" on="0"/>
        <pt x="195" y="264" on="0"/>
        <pt x="297" y="335" on="0"/>
        <pt x="343" y="368" on="1"/>
        <pt x="378" y="393" on="0"/>
        <pt x="419" y="449" on="0"/>
        <pt x="419" y="493" on="1"/>
        <pt x="419" y="556" on="0"/>
        <pt x="349" y="628" on="0"/>
        <pt x="294" y="628" on="1"/>
        <pt x="225" y="628" on="0"/>
        <pt x="147" y="549" on="0"/>
        <pt x="147" y="481" on="1"/>
      </contour>
    </TTGlyph>
    <TTGlyph name="u" xMin="60" yMin="-10" xMax="490" yMax="523">
      <contour>
        <pt x="148" y="523" on="1"/>
        <pt x="148" y="174" on="1"/>
        <pt x="148" y="145" on="0"/>
        <pt x="164" y="105" on="0"/>
        <pt x="191" y="80" on="0"/>
        <pt x="226" y="68" on="0"/>
        <pt x="245" y="68" on="1"/>
        <pt x="267" y="68" on="0"/>
        <pt x="314" y="83" on="0"/>
        <pt x="357" y="109" on="0"/>
        <pt x="391" y="144" on="0"/>
        <pt x="402" y="164" on="1"/>
        <pt x="402" y="523" on="1"/>
        <pt x="490" y="523" on="1"/>
        <pt x="490" y="0" on="1"/>
        <pt x="402" y="0" on="1"/>
        <pt x="402" y="70" on="1"/>
        <pt x="399" y="70" on="1"/>
        <pt x="368" y="30" on="0"/>
        <pt x="279" y="-10" on="0"/>
        <pt x="225" y="-10" on="1"/>
        <pt x="152" y="-10" on="0"/>
        <pt x="60" y="61" on="0"/>
        <pt x="60" y="135" on="1"/>
        <pt x="60" y="523" on="1"/>
      </contour>
    </TTGlyph>
    <TTGlyph name="underscore" xMin="0" yMin="-212" xMax="503" yMax="-142">
      <contour>
        <pt x="503" y="-142" on="1"/>
        <pt x="503" y="-212" on="1"/>
        <pt x="0" y="-212" on="1"/>
        <pt x="0" y="-142" on="1"/>
      </contour>
    </TTGlyph>
    <TTGlyph name="v" xMin="6" yMin="0" xMax="500" yMax="523">
      <contour>
        <pt x="106" y="523" on="1"/>
        <pt x="253" y="110" on="1"/>
        <pt x="400" y="523" on="1"/>
        <pt x="500" y="523" on="1"/>
        <pt x="298" y="0" on="1"/>
        <pt x="208" y="0" on="1"/>
        <pt x="6" y="523" on="1"/>
      </contour>
    </TTGlyph>
    <TTGlyph name="w" xMin="10" yMin="0" xMax="716" yMax="523">
      <contour>
        <pt x="101" y="523" on="1"/>
        <pt x="208" y="130" on="1"/>
        <pt x="315" y="523" on="1"/>
        <pt x="411" y="523" on="1"/>
        <pt x="518" y="130" on="1"/>
        <pt x="625" y="523" on="1"/>
        <pt x="716" y="523" on="1"/>
        <pt x="565" y="0" on="1"/>
        <pt x="476" y="0" on="1"/>
        <pt x="363" y="432" on="1"/>
        <pt x="250" y="0" on="1"/>
        <pt x="161" y="0" on="1"/>
        <pt x="10" y="523" on="1"/>
      </contour>
    </TTGlyph>
    <TTGlyph name="x" xMin="10" yMin="0" xMax="486" yMax="523">
      <contour>
        <pt x="128" y="523" on="1"/>
        <pt x="248" y="329" on="1"/>
        <pt x="373" y="523" on="1"/>
        <pt x="481" y="523" on="1"/>
        <pt x="301" y="269" on="1"/>
        <pt x="486" y="0" on="1"/>
        <pt x="376" y="0" on="1"/>
        <pt x="248" y="202" on="1"/>
        <pt x="120" y="0" on="1"/>
        <pt x="10" y="0" on="1"/>
        <pt x="195" y="269" on="1"/>
        <pt x="20" y="523" on="1"/>
      </contour>
    </TTGlyph>
    <TTGlyph name="y" xMin="10" yMin="-223" xMax="483" yMax="524">
      <contour>
        <pt x="109" y="524" on="1"/>
        <pt x="246" y="111" on="1"/>
        <pt x="248" y="111" on="1"/>
        <pt x="384" y="524" on="1"/>
        <pt x="483" y="524" on="1"/>
        <pt x="252" y="-108" on="1"/>
        <pt x="229" y="-171" on="0"/>
        <pt x="162" y="-223" on="0"/>
        <pt x="131" y="-223" on="1"/>
        <pt x="116" y="-223" on="0"/>
        <pt x="84" y="-217" on="0"/>
        <pt x="70" y="-211" on="1"/>
        <pt x="70" y="-135" on="1"/>
        <pt x="82" y="-143" on="0"/>
        <pt x="105" y="-145" on="0"/>
        <pt x="121" y="-145" on="1"/>
        <pt x="134" y="-145" on="0"/>
        <pt x="154" y="-129" on="0"/>
        <pt x="169" y="-105" on="0"/>
        <pt x="179" y="-79" on="0"/>
        <pt x="182" y="-69" on="1"/>
        <pt x="202" y="0" on="1"/>
        <pt x="10" y="524" on="1"/>
      </contour>
    </TTGlyph>
    <TTGlyph name="z" xMin="32" yMin="0" xMax="465" yMax="523">
      <contour>
        <pt x="455" y="523" on="1"/>
        <pt x="455" y="445" on="1"/>
        <pt x="149" y="80" on="1"/>
        <pt x="149" y="78" on="1"/>
        <pt x="465" y="78" on="1"/>
        <pt x="465" y="0" on="1"/>
        <pt x="32" y="0" on="1"/>
        <pt x="32" y="78" on="1"/>
        <pt x="335" y="443" on="1"/>
        <pt x="335" y="445" on="1"/>
        <pt x="51" y="445" on="1"/>
        <pt x="51" y="523" on="1"/>
      </contour>
    </TTGlyph>
    <TTGlyph name="zero" xMin="35" yMin="-10" xMax="521" yMax="708">
      <contour>
        <pt x="278" y="708" on="1"/>
        <pt x="399" y="708" on="0"/>
        <pt x="521" y="533" on="0"/>
        <pt x="521" y="354" on="1"/>
        <pt x="521" y="175" on="0"/>
        <pt x="399" y="-10" on="0"/>
        <pt x="278" y="-10" on="1"/>
        <pt x="157" y="-10" on="0"/>
        <pt x="35" y="175" on="0"/>
        <pt x="35" y="354" on="1"/>
        <pt x="35" y="436" on="0"/>
        <pt x="66" y="567" on="0"/>
        <pt x="127" y="659" on="0"/>
        <pt x="218" y="708" on="0"/>
      </contour>
      <contour>
        <pt x="278" y="628" on="1"/>
        <pt x="203" y="628" on="0"/>
        <pt x="135" y="499" on="0"/>
        <pt x="135" y="354" on="1"/>
        <pt x="135" y="208" on="0"/>
        <pt x="203" y="70" on="0"/>
        <pt x="278" y="70" on="1"/>
        <pt x="353" y="70" on="0"/>
        <pt x="421" y="208" on="0"/>
        <pt x="421" y="354" on="1"/>
        <pt x="421" y="499" on="0"/>
        <pt x="353" y="628" on="0"/>
      </contour>
    </TTGlyph>
</ttFont>
